<svg width="32" height="32" viewBox="0 0 32 32" fill="none" xmlns="http://www.w3.org/2000/svg">
<path d="M17.236 8.26374L25.3356 16.3633C25.4192 16.4469 25.4856 16.5461 25.5309 16.6554C25.5762 16.7646 25.5995 16.8817 25.5995 17C25.5995 17.1183 25.5762 17.2354 25.5309 17.3446C25.4856 17.4539 25.4192 17.5531 25.3356 17.6367L17.236 25.7363C17.0671 25.9051 16.8381 26 16.5993 26C16.3605 26 16.1315 25.9051 15.9626 25.7363C15.7937 25.5674 15.6988 25.3384 15.6988 25.0995C15.6988 24.8607 15.7937 24.6317 15.9626 24.4628L22.5266 17.9L4.89995 17.9C4.66127 17.9 4.43236 17.8051 4.26359 17.6364C4.09482 17.4676 4 17.2387 4 17C4 16.7613 4.09482 16.5324 4.26359 16.3636C4.43236 16.1949 4.66127 16.1001 4.89995 16.1001L22.5266 16.1001L15.9626 9.53717C15.7937 9.3683 15.6988 9.13926 15.6988 8.90045C15.6988 8.66164 15.7937 8.4326 15.9626 8.26374C16.1314 8.09487 16.3605 8 16.5993 8C16.8381 8 17.0671 8.09487 17.236 8.26374Z" fill="white"/>
</svg>
