<svg width="32" height="32" viewBox="0 0 32 32" fill="none" xmlns="http://www.w3.org/2000/svg">
<g id="shopping-bag-fill">
<path id="Vector" d="M16.0069 1.33301C19.6887 1.33301 22.6735 4.31778 22.6735 7.99967V10.6663H26.6735C27.4099 10.6663 28.0069 11.2633 28.0069 11.9997V27.9997C28.0069 28.7361 27.4099 29.333 26.6735 29.333H5.34017C4.6038 29.333 4.00684 28.7361 4.00684 27.9997V11.9997C4.00684 11.2633 4.6038 10.6663 5.34017 10.6663H9.34017V7.99967C9.34017 4.31778 12.3249 1.33301 16.0069 1.33301ZM22.6735 14.6663H20.0069V15.9997C20.0069 16.7361 20.6038 17.333 21.3402 17.333C22.0239 17.333 22.5875 16.8183 22.6646 16.1551L22.6735 15.9997V14.6663ZM12.0068 14.6663H9.34017V15.9997C9.34017 16.7361 9.93713 17.333 10.6735 17.333C11.3573 17.333 11.9209 16.8183 11.9979 16.1551L12.0068 15.9997V14.6663ZM16.0069 3.99967C13.8766 3.99967 12.1353 5.6649 12.0136 7.76464L12.0068 7.99967V10.6663H20.0069V7.99967C20.0069 5.86943 18.3417 4.12812 16.2419 4.00647L16.0069 3.99967Z" fill="#0C0073"/>
</g>
</svg>
