<svg width="28" height="28" viewBox="0 0 28 28" fill="none" xmlns="http://www.w3.org/2000/svg">
<g clip-path="url(#clip0_799_6472)">
<path d="M22.75 4.375H5.25C4.76675 4.375 4.375 4.76675 4.375 5.25V22.75C4.375 23.2332 4.76675 23.625 5.25 23.625H22.75C23.2332 23.625 23.625 23.2332 23.625 22.75V5.25C23.625 4.76675 23.2332 4.375 22.75 4.375Z" stroke="#FEFEFE" stroke-linecap="round" stroke-linejoin="round"/>
<path d="M19.25 2.625V6.125" stroke="#FEFEFE" stroke-linecap="round" stroke-linejoin="round"/>
<path d="M8.75 2.625V6.125" stroke="#FEFEFE" stroke-linecap="round" stroke-linejoin="round"/>
<path d="M4.375 9.625H23.625" stroke="#FEFEFE" stroke-linecap="round" stroke-linejoin="round"/>
<path d="M14 15.75C14.7249 15.75 15.3125 15.1624 15.3125 14.4375C15.3125 13.7126 14.7249 13.125 14 13.125C13.2751 13.125 12.6875 13.7126 12.6875 14.4375C12.6875 15.1624 13.2751 15.75 14 15.75Z" fill="#FEFEFE"/>
<path d="M18.8125 15.75C19.5374 15.75 20.125 15.1624 20.125 14.4375C20.125 13.7126 19.5374 13.125 18.8125 13.125C18.0876 13.125 17.5 13.7126 17.5 14.4375C17.5 15.1624 18.0876 15.75 18.8125 15.75Z" fill="#FEFEFE"/>
<path d="M9.1875 20.125C9.91237 20.125 10.5 19.5374 10.5 18.8125C10.5 18.0876 9.91237 17.5 9.1875 17.5C8.46263 17.5 7.875 18.0876 7.875 18.8125C7.875 19.5374 8.46263 20.125 9.1875 20.125Z" fill="#FEFEFE"/>
<path d="M14 20.125C14.7249 20.125 15.3125 19.5374 15.3125 18.8125C15.3125 18.0876 14.7249 17.5 14 17.5C13.2751 17.5 12.6875 18.0876 12.6875 18.8125C12.6875 19.5374 13.2751 20.125 14 20.125Z" fill="#FEFEFE"/>
<path d="M18.8125 20.125C19.5374 20.125 20.125 19.5374 20.125 18.8125C20.125 18.0876 19.5374 17.5 18.8125 17.5C18.0876 17.5 17.5 18.0876 17.5 18.8125C17.5 19.5374 18.0876 20.125 18.8125 20.125Z" fill="#FEFEFE"/>
</g>
<defs>
<clipPath id="clip0_799_6472">
<rect width="28" height="28" fill="white"/>
</clipPath>
</defs>
</svg>
