<svg width="24" height="25" viewBox="0 0 24 25" fill="none" xmlns="http://www.w3.org/2000/svg">
<path d="M12 2.85547C10.0222 2.85547 8.08879 3.44196 6.4443 4.54077C4.79981 5.63959 3.51809 7.20137 2.76121 9.02863C2.00433 10.8559 1.8063 12.8666 2.19215 14.8064C2.578 16.7462 3.53041 18.528 4.92894 19.9265C6.32746 21.3251 8.10929 22.2775 10.0491 22.6633C11.9889 23.0492 13.9996 22.8511 15.8268 22.0943C17.6541 21.3374 19.2159 20.0557 20.3147 18.4112C21.4135 16.7667 22 14.8333 22 12.8555C21.9949 10.2049 20.9397 7.66428 19.0655 5.79001C17.1912 3.91575 14.6506 2.86055 12 2.85547ZM15.625 15.3843C15.7694 15.5302 15.8505 15.7271 15.8505 15.9324C15.8505 16.1377 15.7694 16.3346 15.625 16.4805C15.478 16.6226 15.2814 16.7021 15.0769 16.7021C14.8724 16.7021 14.6759 16.6226 14.5288 16.4805L12 13.942L9.47116 16.4805C9.32413 16.6226 9.1276 16.7021 8.92308 16.7021C8.71856 16.7021 8.52203 16.6226 8.375 16.4805C8.23056 16.3346 8.14952 16.1377 8.14952 15.9324C8.14952 15.7271 8.23056 15.5302 8.375 15.3843L10.9135 12.8555L8.375 10.3266C8.25234 10.1772 8.18965 9.98742 8.19914 9.7943C8.20862 9.60119 8.2896 9.4185 8.42632 9.28178C8.56304 9.14506 8.74572 9.06409 8.93884 9.0546C9.13196 9.04512 9.3217 9.1078 9.47116 9.23047L12 11.7689L14.5288 9.23047C14.6783 9.1078 14.868 9.04512 15.0612 9.0546C15.2543 9.06409 15.437 9.14506 15.5737 9.28178C15.7104 9.4185 15.7914 9.60119 15.8009 9.7943C15.8104 9.98742 15.7477 10.1772 15.625 10.3266L13.0865 12.8555L15.625 15.3843Z" fill="#E51F1F"/>
</svg>
