<svg width="28" height="28" viewBox="0 0 28 28" fill="none" xmlns="http://www.w3.org/2000/svg">
<path d="M14 10.5C14.9665 10.5 15.75 9.7165 15.75 8.75C15.75 7.7835 14.9665 7 14 7C13.0335 7 12.25 7.7835 12.25 8.75C12.25 9.7165 13.0335 10.5 14 10.5Z" fill="white"/>
<path fill-rule="evenodd" clip-rule="evenodd" d="M13.9993 3.20817C12.5296 3.20817 11.1201 3.79202 10.0808 4.83129C9.04154 5.87055 8.45768 7.2801 8.45768 8.74984C8.45768 11.6084 9.88653 13.8789 11.3633 15.4612C12.099 16.2494 12.836 16.8549 13.3887 17.2629C13.6356 17.4452 13.8448 17.5873 13.9993 17.688C14.1539 17.5873 14.3631 17.4452 14.61 17.2629C15.1627 16.8549 15.8997 16.2494 16.6354 15.4612C18.1122 13.8789 19.541 11.6084 19.541 8.74984C19.541 7.2801 18.9572 5.87055 17.9179 4.83129C16.8786 3.79202 15.4691 3.20817 13.9993 3.20817ZM13.9993 18.3748C13.7099 18.8813 13.7097 18.8812 13.7095 18.8811L13.7073 18.8798L13.7025 18.877L13.6863 18.8676C13.6726 18.8595 13.6533 18.8481 13.6287 18.8332C13.5795 18.8034 13.5092 18.76 13.4207 18.7032C13.2439 18.5895 12.9942 18.4218 12.6959 18.2016C12.1002 17.7619 11.306 17.1097 10.5104 16.2572C8.92467 14.5582 7.29102 12.0163 7.29102 8.74984C7.29102 6.97068 7.99778 5.26439 9.25584 4.00633C10.5139 2.74827 12.2202 2.0415 13.9993 2.0415C15.7785 2.0415 17.4848 2.74827 18.7429 4.00633C20.0009 5.26439 20.7077 6.97068 20.7077 8.74984C20.7077 12.0163 19.074 14.5582 17.4883 16.2572C16.6927 17.1097 15.8985 17.7619 15.3028 18.2016C15.0045 18.4218 14.7548 18.5895 14.578 18.7032C14.4895 18.76 14.4192 18.8034 14.37 18.8332C14.3454 18.8481 14.3261 18.8595 14.3124 18.8676L14.2962 18.877L14.2914 18.8798L14.2898 18.8807C14.2896 18.8809 14.2888 18.8813 13.9993 18.3748ZM13.9993 18.3748L14.2888 18.8813C14.1094 18.9838 13.8888 18.9835 13.7095 18.8811L13.9993 18.3748Z" fill="white"/>
<path fill-rule="evenodd" clip-rule="evenodd" d="M6.67158 16.7662C6.78316 17.0685 6.6286 17.4039 6.32637 17.5155C5.28702 17.8992 4.48409 18.3471 3.95163 18.8173C3.41843 19.2881 3.20768 19.7318 3.20768 20.1248C3.20768 20.508 3.40732 20.9384 3.91067 21.3961C4.41418 21.854 5.17532 22.2931 6.16532 22.6739C8.14145 23.434 10.911 23.9165 13.9993 23.9165C17.0877 23.9165 19.8573 23.434 21.8334 22.6739C22.8234 22.2931 23.5845 21.854 24.088 21.3961C24.5914 20.9384 24.791 20.508 24.791 20.1248C24.791 19.7318 24.5803 19.2881 24.0471 18.8173C23.5146 18.3471 22.7117 17.8992 21.6723 17.5155C21.3701 17.4039 21.2155 17.0685 21.3271 16.7662C21.4387 16.464 21.7741 16.3095 22.0764 16.421C23.1939 16.8336 24.141 17.3438 24.8193 17.9428C25.4969 18.5411 25.9577 19.2775 25.9577 20.1248C25.9577 20.9497 25.5208 21.6702 24.8729 22.2593C24.2253 22.8482 23.3206 23.3519 22.2522 23.7628C20.1114 24.5862 17.1935 25.0832 13.9993 25.0832C10.8052 25.0832 7.88725 24.5862 5.7465 23.7628C4.67807 23.3519 3.77342 22.8482 3.12576 22.2593C2.47794 21.6702 2.04102 20.9497 2.04102 20.1248C2.04102 19.2775 2.50183 18.5411 3.17941 17.9428C3.85773 17.3438 4.80481 16.8336 5.92233 16.421C6.22456 16.3095 6.56001 16.464 6.67158 16.7662Z" fill="white"/>
</svg>
