<svg width="15" height="15" viewBox="0 0 15 15" fill="none" xmlns="http://www.w3.org/2000/svg">
<path d="M12.031 6.03037L14.0799 4.10241L14.0919 4.09045C14.5139 3.66845 14.751 3.09609 14.751 2.49928C14.751 1.90248 14.5139 1.33011 14.0919 0.908108C13.6699 0.486103 13.0975 0.249023 12.5007 0.249023C11.9039 0.249023 11.3315 0.486103 10.9095 0.908108C10.9095 0.912327 10.9018 0.915843 10.8976 0.920061L8.96961 2.96897L3.13368 0.84553C3.03309 0.808946 2.92416 0.801819 2.81966 0.824984C2.71517 0.84815 2.61946 0.900647 2.54376 0.976312L0.856255 2.66381C0.797452 2.72266 0.752435 2.79382 0.724447 2.87217C0.69646 2.95051 0.686199 3.03409 0.694403 3.11688C0.702608 3.19966 0.729075 3.2796 0.771896 3.35093C0.814716 3.42226 0.872826 3.4832 0.942036 3.52936L5.4343 6.52397L4.39227 7.56248H2.93751C2.78852 7.56255 2.64565 7.62172 2.54024 7.72701L0.85274 9.41451C0.786928 9.48017 0.738413 9.5611 0.711532 9.65009C0.684651 9.73907 0.680243 9.83334 0.698701 9.92444C0.717159 10.0155 0.757908 10.1007 0.817305 10.1722C0.876701 10.2437 0.952893 10.2993 1.03907 10.3342L3.62797 11.3699L4.66157 13.9539L4.66579 13.9651C4.70154 14.0517 4.75834 14.1279 4.83104 14.187C4.90373 14.246 4.99001 14.286 5.08206 14.3032C5.1741 14.3205 5.269 14.3145 5.35814 14.2858C5.44728 14.2571 5.52783 14.2065 5.59251 14.1388L7.27086 12.4597C7.32338 12.4077 7.36513 12.3459 7.39372 12.2777C7.42232 12.2095 7.43719 12.1364 7.43751 12.0625V10.6077L8.47532 9.56991L11.4699 14.0622C11.5161 14.1314 11.577 14.1895 11.6484 14.2323C11.7197 14.2751 11.7996 14.3016 11.8824 14.3098C11.9652 14.318 12.0488 14.3077 12.1271 14.2798C12.2055 14.2518 12.2766 14.2068 12.3355 14.148L14.023 12.4605C14.0986 12.3848 14.1511 12.289 14.1743 12.1845C14.1975 12.08 14.1903 11.9711 14.1538 11.8705L12.031 6.03037ZM12.0261 12.8669L9.03149 8.3753C8.98558 8.30556 8.92473 8.24691 8.85334 8.20362C8.78195 8.16032 8.70182 8.13346 8.61876 8.12498C8.59977 8.12498 8.58149 8.12498 8.56321 8.12498C8.48927 8.12502 8.41606 8.13963 8.34777 8.16798C8.27949 8.19633 8.21746 8.23787 8.16524 8.29022L6.47774 9.97772C6.37219 10.083 6.31276 10.2259 6.31251 10.375V11.8297L5.39352 12.7487L4.58493 10.7265C4.55664 10.6563 4.51447 10.5926 4.46094 10.539C4.40742 10.4855 4.34365 10.4434 4.27344 10.4151L2.25266 9.60647L3.17094 8.68748H4.62501C4.6989 8.68754 4.77207 8.67304 4.84036 8.64481C4.90864 8.61658 4.9707 8.57517 5.02297 8.52295L6.71047 6.83545C6.76941 6.7766 6.81453 6.70539 6.8426 6.62698C6.87066 6.54856 6.88096 6.46489 6.87275 6.38201C6.86454 6.29913 6.83804 6.2191 6.79514 6.14772C6.75224 6.07633 6.69402 6.01535 6.62469 5.9692L2.13313 2.97389L3.08235 2.02537L8.93375 4.15303C9.03685 4.19091 9.14878 4.19778 9.25574 4.17279C9.36269 4.1478 9.45999 4.09205 9.53563 4.01241L11.7111 1.69842C11.9231 1.49258 12.2077 1.37844 12.5032 1.38066C12.7987 1.38289 13.0815 1.5013 13.2904 1.71031C13.4993 1.91932 13.6176 2.20214 13.6197 2.49766C13.6218 2.79317 13.5075 3.07764 13.3016 3.28959L10.9904 5.46436C10.9108 5.54 10.855 5.6373 10.83 5.74425C10.805 5.85121 10.8119 5.96314 10.8498 6.06623L12.9774 11.9176L12.0261 12.8669Z" fill="black"/>
</svg>
