<svg width="164" height="164" viewBox="0 0 164 164" fill="none" xmlns="http://www.w3.org/2000/svg">
<path d="M111.422 61.4219L90.836 82L111.422 102.578C112.003 103.159 112.463 103.848 112.777 104.607C113.092 105.366 113.254 106.179 113.254 107C113.254 107.821 113.092 108.634 112.777 109.393C112.463 110.152 112.003 110.841 111.422 111.422C110.841 112.003 110.152 112.463 109.393 112.777C108.634 113.092 107.821 113.253 107 113.253C106.179 113.253 105.366 113.092 104.607 112.777C103.848 112.463 103.159 112.003 102.578 111.422L82 90.8359L61.4219 111.422C60.8412 112.003 60.1518 112.463 59.3931 112.777C58.6344 113.092 57.8213 113.253 57 113.253C56.1788 113.253 55.3656 113.092 54.6069 112.777C53.8482 112.463 53.1588 112.003 52.5782 111.422C51.9975 110.841 51.5368 110.152 51.2226 109.393C50.9083 108.634 50.7466 107.821 50.7466 107C50.7466 106.179 50.9083 105.366 51.2226 104.607C51.5368 103.848 51.9975 103.159 52.5782 102.578L73.1641 82L52.5782 61.4219C51.4054 60.2491 50.7466 58.6585 50.7466 57C50.7466 55.3415 51.4054 53.7509 52.5782 52.5781C53.7509 51.4054 55.3415 50.7465 57 50.7465C58.6586 50.7465 60.2492 51.4054 61.4219 52.5781L82 73.1641L102.578 52.5781C103.159 51.9974 103.848 51.5368 104.607 51.2225C105.366 50.9083 106.179 50.7465 107 50.7465C107.821 50.7465 108.634 50.9083 109.393 51.2225C110.152 51.5368 110.841 51.9974 111.422 52.5781C112.003 53.1588 112.463 53.8482 112.777 54.6069C113.092 55.3656 113.254 56.1788 113.254 57C113.254 57.8212 113.092 58.6344 112.777 59.3931C112.463 60.1518 112.003 60.8412 111.422 61.4219ZM163.25 82C163.25 98.0697 158.485 113.779 149.557 127.14C140.629 140.502 127.94 150.916 113.093 157.065C98.2466 163.215 81.9099 164.824 66.1489 161.689C50.388 158.554 35.9106 150.815 24.5476 139.452C13.1846 128.089 5.44628 113.612 2.31123 97.8511C-0.823817 82.0901 0.785204 65.7535 6.93482 50.907C13.0844 36.0605 23.4985 23.371 36.86 14.4431C50.2214 5.51523 65.9303 0.75 82 0.75C103.542 0.772749 124.195 9.3403 139.427 24.5727C154.66 39.8051 163.227 60.4581 163.25 82ZM150.75 82C150.75 68.4025 146.718 55.1104 139.164 43.8045C131.609 32.4987 120.872 23.6868 108.31 18.4833C95.7471 13.2798 81.9238 11.9183 68.5876 14.571C55.2514 17.2237 43.0013 23.7715 33.3864 33.3864C23.7716 43.0013 17.2238 55.2514 14.571 68.5875C11.9183 81.9237 13.2798 95.7471 18.4833 108.309C23.6868 120.872 32.4987 131.609 43.8046 139.164C55.1105 146.718 68.4026 150.75 82 150.75C100.227 150.729 117.702 143.479 130.591 130.591C143.479 117.702 150.729 100.227 150.75 82Z" fill="#FFDEE1"/>
</svg>
