<svg width="164" height="164" viewBox="0 0 164 164" fill="none" xmlns="http://www.w3.org/2000/svg">
<path d="M117.672 58.8281C118.253 59.4086 118.714 60.0979 119.029 60.8566C119.343 61.6154 119.505 62.4287 119.505 63.25C119.505 64.0713 119.343 64.8846 119.029 65.6434C118.714 66.4021 118.253 67.0914 117.672 67.6719L73.9219 111.422C73.3415 112.003 72.6522 112.464 71.8934 112.779C71.1347 113.093 70.3214 113.255 69.5 113.255C68.6787 113.255 67.8654 113.093 67.1067 112.779C66.3479 112.464 65.6586 112.003 65.0782 111.422L46.3282 92.6719C45.1554 91.4991 44.4966 89.9085 44.4966 88.25C44.4966 86.5915 45.1554 85.0009 46.3282 83.8281C47.5009 82.6554 49.0915 81.9965 50.75 81.9965C52.4086 81.9965 53.9992 82.6554 55.1719 83.8281L69.5 98.1641L108.828 58.8281C109.409 58.247 110.098 57.786 110.857 57.4715C111.615 57.157 112.429 56.9951 113.25 56.9951C114.071 56.9951 114.885 57.157 115.643 57.4715C116.402 57.786 117.091 58.247 117.672 58.8281ZM163.25 82C163.25 98.0697 158.485 113.779 149.557 127.14C140.629 140.502 127.94 150.916 113.093 157.065C98.2466 163.215 81.9099 164.824 66.1489 161.689C50.388 158.554 35.9106 150.815 24.5476 139.452C13.1846 128.089 5.44628 113.612 2.31123 97.8511C-0.823817 82.0901 0.785204 65.7535 6.93482 50.907C13.0844 36.0605 23.4985 23.371 36.86 14.4431C50.2214 5.51523 65.9303 0.75 82 0.75C103.542 0.772749 124.195 9.3403 139.427 24.5727C154.66 39.8051 163.227 60.4581 163.25 82ZM150.75 82C150.75 68.4025 146.718 55.1104 139.164 43.8045C131.609 32.4987 120.872 23.6868 108.31 18.4833C95.7471 13.2798 81.9238 11.9183 68.5876 14.571C55.2514 17.2237 43.0013 23.7715 33.3864 33.3864C23.7716 43.0013 17.2238 55.2514 14.571 68.5875C11.9183 81.9237 13.2798 95.7471 18.4833 108.309C23.6868 120.872 32.4987 131.609 43.8046 139.164C55.1105 146.718 68.4026 150.75 82 150.75C100.227 150.729 117.702 143.479 130.591 130.591C143.479 117.702 150.729 100.227 150.75 82Z" fill="#9FEDD6"/>
</svg>
