<svg width="32" height="32" viewBox="0 0 32 32" fill="none" xmlns="http://www.w3.org/2000/svg">
<g id="bi:suitcase2-fill" clip-path="url(#clip0_160_4093)">
<path id="Vector" d="M13 0C12.7348 0 12.4804 0.105357 12.2929 0.292893C12.1054 0.48043 12 0.734784 12 1V6H9C8.20435 6 7.44129 6.31607 6.87868 6.87868C6.31607 7.44129 6 8.20435 6 9V27C5.9997 27.6217 6.19256 28.2282 6.55193 28.7355C6.91129 29.2428 7.4194 29.626 8.006 29.832C7.9853 30.0998 8.01873 30.3689 8.10431 30.6235C8.18988 30.8781 8.32585 31.1128 8.5041 31.3136C8.68235 31.5145 8.89923 31.6774 9.1418 31.7927C9.38438 31.9079 9.64768 31.9731 9.916 31.9844C10.1843 31.9957 10.4522 31.9528 10.7036 31.8584C10.9549 31.7639 11.1847 31.6198 11.3792 31.4346C11.5737 31.2494 11.7289 31.0269 11.8356 30.7804C11.9422 30.534 11.9981 30.2686 12 30H20C19.9986 30.2706 20.0521 30.5387 20.1573 30.788C20.2625 31.0373 20.4172 31.2627 20.6121 31.4504C20.8069 31.6382 21.0378 31.7845 21.2908 31.8805C21.5438 31.9764 21.8137 32.02 22.0841 32.0086C22.3544 31.9973 22.6197 31.9311 22.8637 31.8143C23.1078 31.6974 23.3256 31.5322 23.504 31.3287C23.6823 31.1252 23.8176 30.8877 23.9014 30.6304C23.9853 30.3731 24.0161 30.1015 23.992 29.832C24.579 29.6263 25.0875 29.2433 25.4473 28.736C25.807 28.2286 26.0002 27.622 26 27V9C26 8.20435 25.6839 7.44129 25.1213 6.87868C24.5587 6.31607 23.7956 6 23 6H20V1C20 0.734784 19.8946 0.48043 19.7071 0.292893C19.5196 0.105357 19.2652 0 19 0L13 0ZM18 6H14V2H18V6ZM8 14V12H24V14H8Z" fill="#0C0073"/>
</g>
<defs>
<clipPath id="clip0_160_4093">
<rect width="32" height="32" fill="white"/>
</clipPath>
</defs>
</svg>
