<svg width="24" height="24" viewBox="0 0 24 24" fill="none" xmlns="http://www.w3.org/2000/svg">
<g id="calendarOut">
<path id="Vector (Stroke)" fill-rule="evenodd" clip-rule="evenodd" d="M8 2.5C8.27614 2.5 8.5 2.72386 8.5 3V4.5H15.5V3C15.5 2.72386 15.7239 2.5 16 2.5C16.2761 2.5 16.5 2.72386 16.5 3V4.5H18C18.6605 4.5 19.2997 4.76128 19.7659 5.23877C20.2362 5.71024 20.5 6.33565 20.5 7V12C20.5 12.2761 20.2761 12.5 20 12.5C19.7239 12.5 19.5 12.2761 19.5 12V11.5H4.5V19C4.5 19.3946 4.6553 19.7682 4.94355 20.0564L4.94827 20.0612C5.22185 20.3421 5.60159 20.5 6 20.5H12.5C12.7761 20.5 13 20.7239 13 21C13 21.2761 12.7761 21.5 12.5 21.5H6C5.33952 21.5 4.70034 21.2387 4.23412 20.7612C3.76383 20.2897 3.5 19.6644 3.5 19V7C3.5 6.33951 3.7613 5.70032 4.2388 5.2341C4.71027 4.76382 5.33566 4.5 6 4.5H7.5V3C7.5 2.72386 7.72386 2.5 8 2.5ZM7.5 5.5H6C5.60544 5.5 5.23181 5.6553 4.94355 5.94355L4.93884 5.94827C4.65786 6.22185 4.5 6.60159 4.5 7V10.5H19.5V7C19.5 6.60544 19.3447 6.23181 19.0564 5.94355L19.0517 5.93884C18.7782 5.65786 18.3984 5.5 18 5.5H16.5V7C16.5 7.27614 16.2761 7.5 16 7.5C15.7239 7.5 15.5 7.27614 15.5 7V5.5H8.5V7C8.5 7.27614 8.27614 7.5 8 7.5C7.72386 7.5 7.5 7.27614 7.5 7V5.5ZM18.6464 15.6464C18.8417 15.4512 19.1583 15.4512 19.3536 15.6464L22.3536 18.6464C22.5488 18.8417 22.5488 19.1583 22.3536 19.3536L19.3536 22.3536C19.1583 22.5488 18.8417 22.5488 18.6464 22.3536C18.4512 22.1583 18.4512 21.8417 18.6464 21.6464L20.7929 19.5H16C15.7239 19.5 15.5 19.2761 15.5 19C15.5 18.7239 15.7239 18.5 16 18.5H20.7929L18.6464 16.3536C18.4512 16.1583 18.4512 15.8417 18.6464 15.6464Z" fill="#181818"/>
</g>
</svg>
