<svg width="72" height="72" viewBox="0 0 72 72" fill="none" xmlns="http://www.w3.org/2000/svg">
<g clip-path="url(#clip0_2523_278)">
<path opacity="0.2" d="M49.5 27.2026V34.8751C49.5 39.9376 41.2762 44.1142 30.524 44.8764C34.4362 46.3586 39.4875 47.2501 45 47.2501C57.4256 47.2501 67.5 42.7164 67.5 37.1251C67.5 32.2258 59.7712 28.142 49.5 27.2026Z" fill="#E79600"/>
<path opacity="0.2" d="M27 33.75C39.4264 33.75 49.5 29.2169 49.5 23.625C49.5 18.0331 39.4264 13.5 27 13.5C14.5736 13.5 4.5 18.0331 4.5 23.625C4.5 29.2169 14.5736 33.75 27 33.75Z" fill="#E79600"/>
<path d="M27 33.75C39.4264 33.75 49.5 29.2169 49.5 23.625C49.5 18.0331 39.4264 13.5 27 13.5C14.5736 13.5 4.5 18.0331 4.5 23.625C4.5 29.2169 14.5736 33.75 27 33.75Z" stroke="#E79600" stroke-width="2.5" stroke-linecap="round" stroke-linejoin="round"/>
<path d="M4.5 23.625V34.875C4.5 40.4662 14.5744 45 27 45C39.4256 45 49.5 40.4662 49.5 34.875V23.625" stroke="#E79600" stroke-width="2.5" stroke-linecap="round" stroke-linejoin="round"/>
<path d="M18 32.9062V44.1562" stroke="#E79600" stroke-width="2.5" stroke-linecap="round" stroke-linejoin="round"/>
<path d="M49.5 27.2026C59.7712 28.142 67.5 32.2258 67.5 37.1251C67.5 42.7164 57.4256 47.2501 45 47.2501C39.4875 47.2501 34.4362 46.3586 30.524 44.8764" stroke="#E79600" stroke-width="2.5" stroke-linecap="round" stroke-linejoin="round"/>
<path d="M22.5 44.7975V48.375C22.5 53.9662 32.5744 58.5 45 58.5C57.4256 58.5 67.5 53.9662 67.5 48.375V37.125" stroke="#E79600" stroke-width="2.5" stroke-linecap="round" stroke-linejoin="round"/>
<path d="M54 46.4062V57.6562" stroke="#E79600" stroke-width="2.5" stroke-linecap="round" stroke-linejoin="round"/>
<path d="M36 32.9062V57.6562" stroke="#E79600" stroke-width="2.5" stroke-linecap="round" stroke-linejoin="round"/>
</g>
<defs>
<clipPath id="clip0_2523_278">
<rect width="72" height="72" fill="white"/>
</clipPath>
</defs>
</svg>
