<svg width="24" height="24" viewBox="0 0 24 24" fill="none" xmlns="http://www.w3.org/2000/svg">
<g id="mage:chevron-up">
<path id="Vector (Stroke)" fill-rule="evenodd" clip-rule="evenodd" d="M13.9395 15.5382C13.4225 16.0476 12.7258 16.3333 12 16.3333C11.2742 16.3333 10.5775 16.0476 10.0605 15.5382L10.0567 15.5343L3.46967 8.94732C3.17678 8.65442 3.17678 8.17955 3.46967 7.88666C3.76256 7.59376 4.23744 7.59376 4.53033 7.88666L11.1152 14.4715C11.3513 14.7033 11.669 14.8333 12 14.8333C12.331 14.8333 12.6487 14.7033 12.8848 14.4715L19.4697 7.88666C19.7626 7.59377 20.2374 7.59377 20.5303 7.88666C20.8232 8.17955 20.8232 8.65443 20.5303 8.94732L13.9395 15.5382Z" fill="black"/>
</g>
</svg>
