<svg width="20" height="20" viewBox="0 0 20 20" fill="none" xmlns="http://www.w3.org/2000/svg">
<g id="mage:chevron-up">
<path id="Vector (Stroke)" fill-rule="evenodd" clip-rule="evenodd" d="M11.6165 12.9483C11.1857 13.3728 10.6052 13.6108 10.0003 13.6108C9.39547 13.6108 8.81491 13.3728 8.38412 12.9483L8.38087 12.9451L2.89172 7.45589C2.64764 7.21182 2.64764 6.81609 2.89172 6.57201C3.1358 6.32793 3.53153 6.32793 3.7756 6.57201L9.26295 12.0594C9.45973 12.2526 9.7245 12.3608 10.0003 12.3608C10.2761 12.3608 10.5409 12.2526 10.7377 12.0594L16.2251 6.57201C16.4691 6.32793 16.8649 6.32793 17.1089 6.57201C17.353 6.81609 17.353 7.21182 17.1089 7.4559L11.6165 12.9483Z" fill="black"/>
</g>
</svg>
