<svg width="20" height="20" viewBox="0 0 20 20" fill="none" xmlns="http://www.w3.org/2000/svg">
<g clip-path="url(#clip0_2651_8699)">
<path d="M16.8269 7.26094C16.7796 7.14673 16.6995 7.0491 16.5967 6.9804C16.494 6.91171 16.3731 6.87503 16.2495 6.875H3.74952C3.62583 6.8749 3.5049 6.91151 3.40203 6.98017C3.29916 7.04884 3.21897 7.14649 3.17163 7.26076C3.12428 7.37502 3.1119 7.50076 3.13606 7.62207C3.16022 7.74337 3.21982 7.85478 3.30733 7.94219L9.55733 14.1922C9.61537 14.2503 9.6843 14.2964 9.76018 14.3279C9.83605 14.3593 9.91738 14.3755 9.99952 14.3755C10.0817 14.3755 10.163 14.3593 10.2389 14.3279C10.3147 14.2964 10.3837 14.2503 10.4417 14.1922L16.6917 7.94219C16.7791 7.85473 16.8386 7.74333 16.8626 7.62206C16.8867 7.5008 16.8742 7.37513 16.8269 7.26094Z" fill="#0C0C0C"/>
</g>
<defs>
<clipPath id="clip0_2651_8699">
<rect width="20" height="20" fill="white"/>
</clipPath>
</defs>
</svg>
