<svg width="24" height="24" viewBox="0 0 24 24" fill="none" xmlns="http://www.w3.org/2000/svg">
<g clip-path="url(#clip0_3215_14155)">
<path d="M15.6204 11.22C15.4957 11.0936 15.326 11.0219 15.1484 11.0206C14.9709 11.0194 14.8001 11.0887 14.6737 11.2134C14.5473 11.338 14.4756 11.5078 14.4743 11.6853C14.4731 11.8629 14.5424 12.0336 14.667 12.16L17.147 14.6667H5.22038C5.04357 14.6667 4.874 14.7369 4.74897 14.862C4.62395 14.987 4.55371 15.1566 4.55371 15.3334C4.55371 15.5102 4.62395 15.6798 4.74897 15.8048C4.874 15.9298 5.04357 16 5.22038 16H17.147L14.667 18.4667C14.6053 18.5289 14.5564 18.6026 14.5232 18.6836C14.49 18.7647 14.473 18.8515 14.4733 18.9391C14.4736 19.0267 14.4912 19.1133 14.525 19.1941C14.5588 19.275 14.6082 19.3483 14.6704 19.41C14.7325 19.4718 14.8062 19.5206 14.8873 19.5539C14.9683 19.5871 15.0551 19.6041 15.1427 19.6037C15.2303 19.6034 15.317 19.5859 15.3978 19.5521C15.4786 19.5183 15.552 19.4689 15.6137 19.4067L19.687 15.3334L15.6204 11.22Z" fill="#FEFEFE"/>
<path d="M8.82694 12.3C8.95936 12.3007 9.089 12.2621 9.19935 12.1889C9.3097 12.1157 9.39574 12.0113 9.44652 11.889C9.4973 11.7667 9.51051 11.632 9.48446 11.5022C9.45841 11.3723 9.39429 11.2532 9.30027 11.16L6.82694 8.66664H18.7469C18.9238 8.66664 19.0933 8.5964 19.2183 8.47137C19.3434 8.34635 19.4136 8.17678 19.4136 7.99997C19.4136 7.82316 19.3434 7.65359 19.2183 7.52856C19.0933 7.40354 18.9238 7.3333 18.7469 7.3333H6.82694L9.30027 4.84664C9.36199 4.78448 9.41087 4.71077 9.4441 4.62972C9.47734 4.54868 9.49429 4.46188 9.49398 4.37428C9.49367 4.28668 9.47611 4.2 9.4423 4.11919C9.40849 4.03838 9.3591 3.96502 9.29694 3.9033C9.23478 3.84158 9.16107 3.79271 9.08003 3.75947C8.99898 3.72624 8.91218 3.70929 8.82458 3.7096C8.64767 3.71022 8.47826 3.7811 8.35361 3.90664L4.28027 7.99997L8.35361 12.0933C8.41479 12.1575 8.48817 12.2088 8.56945 12.2443C8.65072 12.2798 8.73826 12.2987 8.82694 12.3Z" fill="#FEFEFE"/>
</g>
<defs>
<clipPath id="clip0_3215_14155">
<rect width="24" height="24" fill="white"/>
</clipPath>
</defs>
</svg>
