<svg width="32" height="32" viewBox="0 0 32 32" fill="none" xmlns="http://www.w3.org/2000/svg">
<g id="suitcase-2-fill">
<path id="Vector" d="M24 30.6667H21.3333V29.3334H10.6667V30.6667H8V29.3334H6.66667C5.19391 29.3334 4 28.1395 4 26.6667V9.33342C4 7.86065 5.19391 6.66675 6.66667 6.66675H10.6667V4.00008C10.6667 3.26371 11.2636 2.66675 12 2.66675H20C20.7364 2.66675 21.3333 3.26371 21.3333 4.00008V6.66675H25.3333C26.8061 6.66675 28 7.86065 28 9.33342V26.6667C28 28.1395 26.8061 29.3334 25.3333 29.3334H24V30.6667ZM13.3333 12.0001H10.6667V24.0001H13.3333V12.0001ZM21.3333 12.0001H18.6667V24.0001H21.3333V12.0001ZM18.6667 5.33341H13.3333V6.66675H18.6667V5.33341Z" fill="#0C0073"/>
</g>
</svg>
