<svg width="24" height="24" viewBox="0 0 24 24" fill="none" xmlns="http://www.w3.org/2000/svg">
<g id="suitcaseBig">
<path id="Vector" d="M10.3758 2C10.21 2 10.051 2.06586 9.93375 2.18309C9.81652 2.30032 9.75066 2.45932 9.75066 2.62511V5.75066H7.87533C7.37796 5.75066 6.90096 5.94823 6.54927 6.29993C6.19758 6.65162 6 7.12862 6 7.62598V18.878C5.99981 19.2666 6.12037 19.6457 6.34501 19.9628C6.56966 20.28 6.88728 20.5195 7.25397 20.6483C7.24103 20.8156 7.26193 20.9839 7.31542 21.143C7.36892 21.3022 7.45391 21.4489 7.56534 21.5744C7.67676 21.7 7.81234 21.8019 7.96397 21.8739C8.11561 21.9459 8.2802 21.9867 8.44793 21.9938C8.61565 22.0008 8.78309 21.974 8.94024 21.915C9.09738 21.8559 9.24103 21.7658 9.36261 21.65C9.48418 21.5343 9.5812 21.3952 9.64787 21.2411C9.71454 21.0871 9.7495 20.9212 9.75066 20.7533H14.7515C14.7506 20.9224 14.7841 21.09 14.8499 21.2458C14.9156 21.4017 15.0123 21.5426 15.1341 21.66C15.2559 21.7773 15.4003 21.8688 15.5584 21.9288C15.7166 21.9887 15.8853 22.016 16.0543 22.0089C16.2233 22.0018 16.3891 21.9604 16.5417 21.8874C16.6942 21.8143 16.8304 21.7111 16.9419 21.5839C17.0534 21.4567 17.1379 21.3082 17.1904 21.1474C17.2428 20.9865 17.2621 20.8167 17.247 20.6483C17.6139 20.5197 17.9318 20.2803 18.1567 19.9631C18.3815 19.646 18.5023 19.2667 18.5022 18.878V7.62598C18.5022 7.12862 18.3046 6.65162 17.9529 6.29993C17.6012 5.94823 17.1242 5.75066 16.6269 5.75066H14.7515V2.62511C14.7515 2.45932 14.6857 2.30032 14.5684 2.18309C14.4512 2.06586 14.2922 2 14.1264 2H10.3758ZM13.5013 5.75066H11.0009V3.25022H13.5013V5.75066ZM7.25022 10.7515V9.50131H17.252V10.7515H7.25022Z" fill="#0C0C0C"/>
</g>
</svg>
