<svg width="72" height="72" viewBox="0 0 72 72" fill="none" xmlns="http://www.w3.org/2000/svg">
<g clip-path="url(#clip0_2523_383)">
<path opacity="0.2" d="M11.9081 38.9081C11.487 38.4865 11.2503 37.915 11.25 37.3191V11.25H37.3191C37.915 11.2503 38.4865 11.487 38.9081 11.9081L66.8419 39.8419C67.2635 40.2638 67.5003 40.8359 67.5003 41.4323C67.5003 42.0288 67.2635 42.6009 66.8419 43.0228L43.0312 66.8419C42.6093 67.2635 42.0373 67.5003 41.4408 67.5003C40.8443 67.5003 40.2722 67.2635 39.8503 66.8419L11.9081 38.9081Z" fill="#5CCC63"/>
<path d="M11.9081 38.9081C11.487 38.4865 11.2503 37.915 11.25 37.3191V11.25H37.3191C37.915 11.2503 38.4865 11.487 38.9081 11.9081L66.8419 39.8419C67.2635 40.2638 67.5003 40.8359 67.5003 41.4323C67.5003 42.0288 67.2635 42.6009 66.8419 43.0228L43.0312 66.8419C42.6093 67.2635 42.0373 67.5003 41.4408 67.5003C40.8443 67.5003 40.2722 67.2635 39.8503 66.8419L11.9081 38.9081Z" stroke="#5CCC63" stroke-width="2.5" stroke-linecap="round" stroke-linejoin="round"/>
<path d="M23.625 27C25.489 27 27 25.489 27 23.625C27 21.761 25.489 20.25 23.625 20.25C21.761 20.25 20.25 21.761 20.25 23.625C20.25 25.489 21.761 27 23.625 27Z" fill="#5CCC63"/>
</g>
<defs>
<clipPath id="clip0_2523_383">
<rect width="72" height="72" fill="white"/>
</clipPath>
</defs>
</svg>
