<svg width="32" height="32" viewBox="0 0 32 32" fill="none" xmlns="http://www.w3.org/2000/svg">
<g id="wifi-fill">
<path id="Vector" d="M1 9.32879C5.12109 5.99605 10.3677 4 16.0806 4C21.7934 4 27.0401 5.99605 31.1613 9.32879L28.6478 12.4407C25.2135 9.66337 20.8413 8 16.0806 8C11.3199 8 6.94768 9.66337 3.51344 12.4407L1 9.32879ZM5.18905 14.5152C8.1654 12.1083 11.9546 10.6667 16.0806 10.6667C20.2066 10.6667 23.9958 12.1083 26.9722 14.5152L24.4587 17.6271C22.1693 15.7756 19.2545 14.6667 16.0806 14.6667C12.9068 14.6667 9.99198 15.7756 7.70249 17.6271L5.18905 14.5152ZM9.37812 19.7017C11.2097 18.2204 13.5415 17.3333 16.0806 17.3333C18.6197 17.3333 20.9515 18.2204 22.7831 19.7017L20.2697 22.8136C19.1249 21.8877 17.6675 21.3333 16.0806 21.3333C14.4937 21.3333 13.0363 21.8877 11.8915 22.8136L9.37812 19.7017ZM13.5671 24.8881C14.2541 24.3327 15.1285 24 16.0806 24C17.0327 24 17.9071 24.3327 18.5941 24.8881L16.0806 28L13.5671 24.8881Z" fill="#0C0073"/>
</g>
</svg>
