<svg width="18" height="18" viewBox="0 0 18 18" fill="none" xmlns="http://www.w3.org/2000/svg">
<path d="M16.0622 6.28172L9.31219 1.78172C9.21975 1.72005 9.11112 1.68713 9 1.68713C8.88888 1.68713 8.78025 1.72005 8.68781 1.78172L1.93781 6.28172C1.86076 6.33313 1.79759 6.40277 1.75392 6.48446C1.71026 6.56616 1.68744 6.65737 1.6875 6.75V14.0625C1.6875 14.3609 1.80603 14.647 2.017 14.858C2.22798 15.069 2.51413 15.1875 2.8125 15.1875H15.1875C15.4859 15.1875 15.772 15.069 15.983 14.858C16.194 14.647 16.3125 14.3609 16.3125 14.0625V6.75C16.3126 6.65737 16.2897 6.56616 16.2461 6.48446C16.2024 6.40277 16.1392 6.33313 16.0622 6.28172ZM9 2.9257L14.7593 6.76547L10.0484 10.125H7.95305L3.24211 6.76547L9 2.9257ZM2.8125 14.0625V7.84195L7.44609 11.1466C7.5415 11.2148 7.65581 11.2514 7.77305 11.2514H10.227C10.3442 11.2514 10.4585 11.2148 10.5539 11.1466L15.1875 7.84195V14.0625H2.8125Z" fill="black"/>
</svg>
