<svg width="18" height="18" viewBox="0 0 18 18" fill="none" xmlns="http://www.w3.org/2000/svg">
<g clip-path="url(#clip0_136_654)">
<path d="M5.0625 7.3125C5.0625 6.71576 5.29955 6.14347 5.72151 5.72151C6.14347 5.29955 6.71576 5.0625 7.3125 5.0625L8.4375 7.3125L7.57125 8.61117C7.91487 9.43224 8.56776 10.0851 9.38883 10.4288L10.6875 9.5625L12.9375 10.6875C12.9375 11.2842 12.7004 11.8565 12.2785 12.2785C11.8565 12.7004 11.2842 12.9375 10.6875 12.9375C9.19566 12.9375 7.76492 12.3449 6.71002 11.29C5.65513 10.2351 5.0625 8.80434 5.0625 7.3125Z" stroke="black" stroke-linecap="round" stroke-linejoin="round"/>
<path d="M5.61944 14.8437C7.03731 15.6643 8.70523 15.9413 10.3122 15.6229C11.9192 15.3046 13.3556 14.4127 14.3536 13.1136C15.3515 11.8144 15.843 10.1966 15.7363 8.5619C15.6296 6.92716 14.932 5.38702 13.7736 4.22862C12.6152 3.07023 11.075 2.37264 9.4403 2.26593C7.80556 2.15922 6.1878 2.65066 4.88864 3.64863C3.58948 4.6466 2.69759 6.08298 2.37927 7.68998C2.06094 9.29697 2.33789 10.9649 3.1585 12.3828L2.27889 15.0089C2.24584 15.108 2.24104 15.2144 2.26504 15.3161C2.28904 15.4178 2.34088 15.5108 2.41475 15.5846C2.48863 15.6585 2.58162 15.7104 2.6833 15.7343C2.78499 15.7583 2.89134 15.7536 2.99045 15.7205L5.61944 14.8437Z" stroke="black" stroke-linecap="round" stroke-linejoin="round"/>
</g>
<defs>
<clipPath id="clip0_136_654">
<rect width="18" height="18" fill="white"/>
</clipPath>
</defs>
</svg>
