<svg width="21" height="14" viewBox="0 0 21 14" fill="none" xmlns="http://www.w3.org/2000/svg">
<path d="M3.23438 1.75C3.23438 1.28587 3.41875 0.840752 3.74694 0.512563C4.07513 0.184374 4.52025 0 4.98438 0C5.4485 0 5.89362 0.184374 6.22181 0.512563C6.55 0.840752 6.73438 1.28587 6.73438 1.75C6.73438 2.21413 6.55 2.65925 6.22181 2.98744C5.89362 3.31563 5.4485 3.5 4.98438 3.5C4.52025 3.5 4.07513 3.31563 3.74694 2.98744C3.41875 2.65925 3.23438 2.21413 3.23438 1.75ZM2.98438 6.67812C2.67188 7.02812 2.48438 7.49375 2.48438 8C2.48438 8.50625 2.67188 8.97187 2.98438 9.32187V6.67812ZM7.49687 5.1375C6.56875 5.95937 5.98438 7.1625 5.98438 8.5C5.98438 9.57187 6.35938 10.5562 6.98438 11.3281V12C6.98438 12.5531 6.5375 13 5.98438 13H3.98438C3.43125 13 2.98438 12.5531 2.98438 12V11.1625C1.80313 10.6 0.984375 9.39688 0.984375 8C0.984375 6.06563 2.55 4.5 4.48438 4.5H5.48438C6.23438 4.5 6.92812 4.73438 7.49687 5.13438V5.1375ZM14.9844 12V11.3281C15.6094 10.5562 15.9844 9.57187 15.9844 8.5C15.9844 7.1625 15.4 5.95937 14.4719 5.13438C15.0406 4.73438 15.7344 4.5 16.4844 4.5H17.4844C19.4188 4.5 20.9844 6.06563 20.9844 8C20.9844 9.39688 20.1656 10.6 18.9844 11.1625V12C18.9844 12.5531 18.5375 13 17.9844 13H15.9844C15.4312 13 14.9844 12.5531 14.9844 12ZM15.2344 1.75C15.2344 1.28587 15.4187 0.840752 15.7469 0.512563C16.0751 0.184374 16.5202 0 16.9844 0C17.4485 0 17.8936 0.184374 18.2218 0.512563C18.55 0.840752 18.7344 1.28587 18.7344 1.75C18.7344 2.21413 18.55 2.65925 18.2218 2.98744C17.8936 3.31563 17.4485 3.5 16.9844 3.5C16.5202 3.5 16.0751 3.31563 15.7469 2.98744C15.4187 2.65925 15.2344 2.21413 15.2344 1.75ZM18.9844 6.67812V9.325C19.2969 8.97188 19.4844 8.50938 19.4844 8.00313C19.4844 7.49688 19.2969 7.03125 18.9844 6.68125V6.67812ZM10.9844 0C11.5148 0 12.0235 0.210714 12.3986 0.585786C12.7737 0.960859 12.9844 1.46957 12.9844 2C12.9844 2.53043 12.7737 3.03914 12.3986 3.41421C12.0235 3.78929 11.5148 4 10.9844 4C10.4539 4 9.94523 3.78929 9.57016 3.41421C9.19509 3.03914 8.98438 2.53043 8.98438 2C8.98438 1.46957 9.19509 0.960859 9.57016 0.585786C9.94523 0.210714 10.4539 0 10.9844 0ZM8.48438 8.5C8.48438 9.00625 8.67188 9.46875 8.98438 9.82187V7.17813C8.67188 7.53125 8.48438 7.99375 8.48438 8.5ZM12.9844 7.17813V9.825C13.2969 9.47188 13.4844 9.00938 13.4844 8.50313C13.4844 7.99688 13.2969 7.53125 12.9844 7.18125V7.17813ZM14.9844 8.5C14.9844 9.89688 14.1656 11.1 12.9844 11.6625V13C12.9844 13.5531 12.5375 14 11.9844 14H9.98438C9.43125 14 8.98438 13.5531 8.98438 13V11.6625C7.80312 11.1 6.98438 9.89688 6.98438 8.5C6.98438 6.56563 8.55 5 10.4844 5H11.4844C13.4187 5 14.9844 6.56563 14.9844 8.5Z" fill="#0C0073"/>
</svg>
