<svg width="17" height="14" viewBox="0 0 17 14" fill="none" xmlns="http://www.w3.org/2000/svg">
<path d="M9.48438 2.00003C7.02812 2.00003 4.95 3.60941 4.24375 5.82816C5.29375 5.29691 6.47813 5.00003 7.73438 5.00003H10.4844C10.7594 5.00003 10.9844 5.22503 10.9844 5.50003C10.9844 5.77503 10.7594 6.00003 10.4844 6.00003H9.98438H7.73438C7.21562 6.00003 6.7125 6.05941 6.22813 6.16878C5.41875 6.35316 4.66563 6.68128 3.99688 7.12816C2.18125 8.33753 0.984375 10.4032 0.984375 12.75V13.25C0.984375 13.6657 1.31875 14 1.73438 14C2.15 14 2.48438 13.6657 2.48438 13.25V12.75C2.48438 11.2282 3.13125 9.85941 4.16563 8.90003C4.78438 11.2594 6.93125 13 9.48438 13H9.51562C13.6438 12.9782 16.9844 8.90941 16.9844 3.89378C16.9844 2.56253 16.75 1.29691 16.325 0.156283C16.2437 -0.0593419 15.9281 -0.0499668 15.8188 0.153158C15.2313 1.25316 14.0688 2.00003 12.7344 2.00003H9.48438Z" fill="#0C0073"/>
</svg>
