<svg width="17" height="14" viewBox="0 0 17 14" fill="none" xmlns="http://www.w3.org/2000/svg">
<path d="M2.47187 8.38755L8.11875 13.6594C8.35313 13.8782 8.6625 14 8.98438 14C9.30625 14 9.61563 13.8782 9.85 13.6594L15.4969 8.38755C16.4469 7.50317 16.9844 6.26255 16.9844 4.96567V4.78442C16.9844 2.60005 15.4062 0.737545 13.2531 0.37817C11.8281 0.14067 10.3781 0.606295 9.35938 1.62505L8.98438 2.00005L8.60938 1.62505C7.59062 0.606295 6.14062 0.14067 4.71563 0.37817C2.5625 0.737545 0.984375 2.60005 0.984375 4.78442V4.96567C0.984375 6.26255 1.52187 7.50317 2.47187 8.38755Z" fill="#0C0073"/>
</svg>
