<svg width="41" height="40" viewBox="0 0 41 40" fill="none" xmlns="http://www.w3.org/2000/svg">
<g clip-path="url(#clip0_30_276)">
<g clip-path="url(#clip1_30_276)">
<g clip-path="url(#clip2_30_276)">
<path d="M7.08874 30.6332C7.04936 30.3575 6.78353 30.2787 6.60631 30.1409C4.69628 28.6838 2.76657 27.2365 0.8467 25.799C0.699018 25.6907 0.580872 25.5628 0.452881 25.4249C0.452881 25.2969 0.452881 25.1591 0.452881 25.0311C0.620254 24.8342 0.777782 24.6176 1.00423 24.4798C1.18145 24.3715 1.30944 24.5093 1.42758 24.5979C3.4656 26.1239 5.49377 27.65 7.52194 29.1859C7.62039 29.2548 7.709 29.3336 7.74838 29.4517C7.65978 29.9145 7.44318 30.3083 7.08874 30.6332Z" fill="#B9D4E4"/>
<path d="M7.08873 30.6332C7.28564 30.2393 7.56131 29.8751 7.709 29.4517C7.71884 29.1859 7.89606 28.9988 8.02405 28.7822C8.48679 27.9749 8.99876 27.1971 9.52057 26.4291C9.59933 26.311 9.70763 26.2125 9.82578 26.1338C12.425 22.6583 15.4082 19.5176 18.2043 16.2095C18.352 16.0323 18.4996 15.8452 18.6473 15.6582C18.9033 15.1364 19.3562 14.7918 19.7008 14.3487C20.6164 13.2559 21.5616 12.1926 22.4871 11.1096C23.4224 10.0167 24.3676 8.9337 25.3127 7.8507C25.421 7.73256 25.5195 7.61441 25.6672 7.55534C26.4843 6.64955 27.2424 5.69454 28.1088 4.84783C30.1764 2.80981 32.6575 1.56928 35.5422 1.16562C35.7588 1.13608 35.9852 1.11639 36.2018 1.08685C36.3495 1.5299 36.192 1.9631 36.1132 2.3963C35.9065 3.499 35.5422 4.54262 35.0696 5.56655C35.0401 5.59609 35.0105 5.61578 34.9613 5.62562C34.7841 5.58624 34.6659 5.45825 34.5379 5.34995C33.8488 4.77891 33.0414 4.50324 32.1652 4.40478C31.7714 4.3654 31.5449 4.50324 31.5055 4.78876C31.4662 5.09397 31.6335 5.30072 32.0077 5.36964C32.5885 5.46809 33.1596 5.59609 33.6617 5.94068C33.9374 6.12774 34.1835 6.3345 34.3509 6.62986C34.3607 6.66924 34.3607 6.70863 34.3607 6.74801C34.0851 7.37812 33.6518 7.90977 33.2088 8.43159C32.1455 9.69181 30.8951 10.7453 29.7038 11.8677C29.0737 12.4584 28.4633 13.0688 27.843 13.6694C26.9471 14.5358 26.0413 15.3923 25.1454 16.2489C23.2747 18.0506 21.3942 19.8327 19.5236 21.6344C18.4701 22.6485 17.397 23.6527 16.3336 24.6668C14.463 26.4685 12.5727 28.2407 10.7119 30.0523C9.58949 31.1353 8.43756 32.1887 7.32502 33.2816C7.20688 33.3997 7.11827 33.6065 6.88198 33.5474C6.35032 33.0158 6.26171 32.3955 6.55708 31.726C6.72445 31.3519 6.91151 30.9876 7.08873 30.6332Z" fill="#61AEF5"/>
<path d="M35.0204 5.58628C35.0696 5.12354 35.3256 4.72972 35.4733 4.30636C35.8474 3.26274 36.0739 2.17974 36.2019 1.08689C36.9107 0.968743 37.6196 0.830907 38.3088 1.19519C39.0275 1.57916 39.4607 2.16989 39.4509 2.98707C39.4213 5.19246 38.8995 7.2797 37.8756 9.2488C36.9107 11.0801 35.5225 12.547 33.9472 13.8565C33.583 14.1617 33.2384 14.4866 32.8938 14.7918C32.5984 15.2545 32.1357 15.5499 31.732 15.8945C30.1863 17.2335 28.6405 18.5725 27.0948 19.9115C26.7699 20.197 26.445 20.4825 26.1102 20.7582C25.6672 21.1028 25.3029 21.5557 24.7909 21.8116C23.4815 22.934 22.1622 24.0564 20.8527 25.1788C18.6966 27.0297 16.6093 28.9595 14.3055 30.6332C14.0003 31.0172 13.5671 31.2436 13.1634 31.5094C12.4644 31.9722 11.7457 32.3955 11.0269 32.8189C10.6331 32.9567 10.3378 33.2915 9.90456 33.3309C9.51074 33.5179 9.11693 33.7247 8.71326 33.9019C8.04377 34.1973 7.41366 34.0791 6.89185 33.5573C6.95092 33.5081 7.01984 33.4687 7.07891 33.4195C7.98469 32.5432 8.88063 31.667 9.78642 30.7907C11.1254 29.501 12.4545 28.2014 13.8132 26.9313C14.9651 25.8483 16.1072 24.7456 17.2591 23.6527C18.4504 22.5107 19.6417 21.3686 20.8429 20.2265C21.9653 19.1632 23.0877 18.0999 24.2002 17.0267C25.421 15.8551 26.6517 14.7032 27.8627 13.5217C28.8079 12.5963 29.7826 11.7003 30.7376 10.7945C31.1117 10.4401 31.4859 10.0955 31.86 9.75092C32.815 8.86482 33.6223 7.85074 34.3312 6.76773C34.5183 6.75789 34.5675 6.90557 34.6364 7.03356C34.8038 7.34862 34.9219 7.67352 34.9712 8.02796C34.9909 8.19533 35.0204 8.3627 35.0696 8.53008C35.1681 8.85498 35.3847 9.00266 35.68 8.93374C35.9459 8.87467 36.1034 8.65807 36.064 8.34301C35.9656 7.54553 35.749 6.77758 35.2665 6.11793C35.1681 5.94071 35.0007 5.81272 35.0204 5.58628Z" fill="#3999E9"/>
<path d="M25.6672 7.55535C23.6981 9.8395 21.7191 12.1138 19.75 14.398C19.5137 14.526 19.3858 14.329 19.2381 14.2207C17.1016 12.6258 14.9848 11.021 12.8484 9.43584C10.2295 7.49628 7.6204 5.52718 5.01135 3.56793C4.85382 3.44978 4.61753 3.39071 4.62737 3.12488C5.29687 2.42585 5.91713 1.66775 6.70477 1.10656C7.5121 0.525673 8.41788 0.4666 9.35321 0.850574C10.2984 1.23455 11.2337 1.62837 12.1789 2.02219C12.297 2.07141 12.3955 2.10095 12.5038 2.02219C13.3702 2.39631 14.2366 2.7606 15.1128 3.11504C15.2211 3.15442 15.3393 3.18395 15.418 3.28241C15.9989 3.67623 16.6881 3.85345 17.3182 4.13897C17.6037 4.26696 17.8695 4.42448 18.1846 4.47371C18.667 4.50325 19.0707 4.76908 19.5039 4.9463C20.0651 5.17274 20.6263 5.36965 21.1678 5.64532C21.4435 5.97023 21.8767 6.00961 22.2311 6.16714C23.3043 6.63972 24.3873 7.07292 25.4703 7.51597C25.5293 7.5455 25.5983 7.5455 25.6672 7.55535Z" fill="#CBDEEC"/>
<path d="M26.0512 20.6892C27.0653 19.8031 28.0695 18.917 29.0836 18.031C30.2454 17.0169 31.417 16.0126 32.5787 15.0084C32.6772 14.9198 32.7855 14.8509 32.8938 14.7721C33.5042 16.2194 34.1048 17.6765 34.7054 19.1238C34.7546 19.2518 34.7644 19.4093 34.9515 19.429C35.2567 20.2954 35.6407 21.1323 35.9951 21.9888C36.0542 22.1365 36.0936 22.2744 36.133 22.422C36.2511 23.0915 36.6055 23.6823 36.8517 24.3124C37.0092 24.7062 37.1175 25.1295 37.3735 25.484C37.5606 25.6317 37.5999 25.8581 37.6787 26.055C37.915 26.6753 38.2497 27.2562 38.3876 27.906C38.3285 28.5262 38.0824 29.0677 37.6393 29.5108C37.0092 30.1409 36.3889 30.7809 35.7391 31.4011C35.1287 31.9918 34.2131 31.9131 33.7011 31.2337C31.2004 27.8764 28.6996 24.5191 26.189 21.1618C26.0906 21.0437 25.933 20.9058 26.0512 20.6892Z" fill="#CBDEEC"/>
<path d="M26.0511 20.6892C26.2185 21.2012 26.6123 21.5655 26.9175 21.979C29.0441 24.8538 31.1806 27.7287 33.3368 30.5839C33.6518 31.0073 33.8881 31.5389 34.5182 31.6768C34.9416 31.7654 35.3059 31.7162 35.6111 31.4208C36.3298 30.7316 37.0288 30.0227 37.7279 29.304C38.0823 28.9397 38.1906 28.4376 38.3383 27.965C38.5549 28.0536 38.5746 28.0832 38.5746 28.4081C38.929 29.2646 39.2539 30.1409 39.628 30.9876C40.1695 32.2084 39.9628 33.4293 39.0176 34.3843C38.4958 34.9159 37.9642 35.4476 37.4325 35.9694C36.7039 36.6881 35.8671 36.6487 35.2468 35.8217C32.7559 32.4939 30.2748 29.1563 27.7839 25.8187C26.7797 24.4797 25.7853 23.1309 24.7909 21.7919C25.1749 21.3882 25.6179 21.0535 26.0511 20.6892Z" fill="#B9D4E4"/>
<path d="M4.62731 3.12488C5.36573 3.78453 6.19275 4.33587 6.98039 4.93645C9.95372 7.17137 12.9369 9.39645 15.9201 11.6314C17.0917 12.5076 18.2535 13.3839 19.4251 14.27C19.5235 14.3389 19.622 14.398 19.75 14.4078C19.3955 14.841 19.0411 15.2742 18.6374 15.668C15.3097 13.187 11.9819 10.7157 8.65412 8.23468C7.35451 7.25998 6.05491 6.28528 4.75531 5.32042C3.86921 4.66077 3.81014 3.78453 4.62731 3.12488Z" fill="#B9D4E4"/>
<path d="M9.82583 26.1338C9.11695 27.2365 8.41792 28.3392 7.70905 29.4517C5.61196 27.8666 3.51487 26.2815 1.40794 24.7062C1.28979 24.6176 1.17165 24.4994 1.00427 24.4896C1.56547 23.8102 2.20542 23.2786 3.16043 23.3081C3.5641 23.318 3.91854 23.4853 4.28282 23.6429C6.08454 24.46 7.88627 25.2772 9.67815 26.0944C9.71753 26.1141 9.76675 26.1141 9.82583 26.1338Z" fill="#CBDEEC"/>
<path d="M9.90454 33.3111C10.259 33.1044 10.6036 32.8779 10.9875 32.7401C11.1746 32.7007 11.2337 32.8681 11.3124 32.9665C11.5783 33.3013 11.8343 33.6557 12.0902 34.0003C12.74 34.8569 13.8329 34.9553 14.6304 34.2268C14.8371 34.0397 15.0143 33.8329 15.2211 33.6459C15.3196 33.5474 15.4082 33.4194 15.5854 33.4588C16.0678 34.532 16.5798 35.5953 17.0327 36.6783C17.3182 37.3576 17.1804 38.0173 16.7668 38.608C16.4616 39.0412 16.0777 39.3956 15.6937 39.7501C15.3196 40.0947 14.9947 40.0553 14.6993 39.6615C13.7344 38.3815 12.7794 37.0918 11.8146 35.802C11.1648 34.975 10.5347 34.148 9.90454 33.3111Z" fill="#B9D4E4"/>
<path d="M15.5657 33.4588C15.1325 33.7738 14.8371 34.2464 14.3744 34.5418C13.6458 35.0144 12.5628 34.8273 12.0508 34.1381C11.6964 33.6655 11.3419 33.2127 10.9777 32.7401C11.6275 32.3364 12.2871 31.9327 12.9271 31.5192C13.3898 31.2239 13.8427 30.9187 14.2956 30.6233C14.7288 31.5685 15.1521 32.5136 15.5657 33.4588Z" fill="#CBDEEC"/>
<path d="M38.5746 28.4179C38.4761 28.2801 38.4761 28.0832 38.3383 27.9749C38.0134 27.1479 37.6983 26.3307 37.3734 25.5037C37.718 25.1591 38.0528 24.8145 38.3973 24.4798C38.8207 24.0761 39.2047 24.0761 39.6379 24.4896C39.9332 24.7751 40.2188 25.0508 40.4944 25.3462C40.8587 25.7301 40.8784 26.1239 40.524 26.4981C39.884 27.1479 39.2244 27.778 38.5746 28.4179Z" fill="#3D6687"/>
<path d="M15.418 3.29225C15.1915 3.33164 15.0143 3.1938 14.8272 3.11503C14.1381 2.83936 13.4489 2.55384 12.7695 2.25848C12.6612 2.20925 12.4939 2.2191 12.5037 2.03203C13.0649 1.48068 13.6163 0.929337 14.1774 0.37799C14.6796 -0.12413 15.0438 -0.114284 15.546 0.387835C15.8019 0.643818 16.0678 0.899801 16.3238 1.16563C16.7176 1.57914 16.7176 1.96311 16.3238 2.37662C16.0185 2.67199 15.7133 2.9772 15.418 3.29225Z" fill="#3D6687"/>
<path d="M21.1678 5.65517C21.089 5.65517 21.0004 5.67486 20.9413 5.64532C20.0257 5.26135 19.11 4.86753 18.1846 4.47371C18.6965 3.96174 19.1987 3.44978 19.7106 2.93781C20.1832 2.47507 20.5475 2.48492 21.0299 2.94766C21.2859 3.19379 21.532 3.43993 21.7782 3.69591C22.2311 4.15865 22.2311 4.53278 21.788 4.99552C21.5911 5.22196 21.3745 5.43857 21.1678 5.65517Z" fill="#3D6687"/>
<path d="M36.1329 22.4319C35.9065 22.2054 35.8474 21.8805 35.7293 21.6048C35.4733 21.0141 35.237 20.4234 34.9908 19.8327C34.9416 19.7047 34.8432 19.5767 34.9515 19.4388C35.1385 19.2616 35.3256 19.0745 35.5127 18.8973C35.8671 18.5823 36.2215 18.5626 36.5661 18.8678C36.9304 19.1829 37.275 19.5274 37.59 19.8917C37.9051 20.2462 37.8756 20.64 37.5211 21.0043C37.0781 21.4965 36.6055 21.9593 36.1329 22.4319Z" fill="#3D6687"/>
<path d="M34.3312 6.66924C33.77 5.96037 33.0316 5.60593 32.1455 5.49763C32.0471 5.48778 31.9388 5.45825 31.8403 5.42871C31.476 5.3401 31.3579 5.08412 31.4071 4.74937C31.4563 4.40478 31.7123 4.23741 32.0175 4.26694C33.1301 4.38509 34.1638 4.72968 34.9515 5.57639C34.8924 6.02928 34.7053 6.39357 34.3312 6.66924Z" fill="#FEFEFE"/>
<path d="M34.3312 6.66926C34.5379 6.30498 34.7447 5.9407 34.9514 5.57642C34.9711 5.57642 35.0007 5.58626 35.0204 5.58626C35.6899 6.35421 36.0443 7.25999 36.1723 8.27408C36.2215 8.65805 36.0344 8.98295 35.6997 9.04203C35.3059 9.11095 35.0204 8.90419 34.9514 8.48083C34.8628 7.93933 34.7644 7.40768 34.469 6.92525C34.4296 6.85633 34.3706 6.8071 34.3312 6.74803C34.3312 6.71849 34.3312 6.6988 34.3312 6.66926Z" fill="#CBDEEC"/>
</g>
</g>
</g>
<defs>
<clipPath id="clip0_30_276">
<rect width="40.78" height="40" fill="white"/>
</clipPath>
<clipPath id="clip1_30_276">
<rect width="40.78" height="40" fill="white"/>
</clipPath>
<clipPath id="clip2_30_276">
<rect width="40.78" height="39.9924" fill="white" transform="translate(0 0.00384521)"/>
</clipPath>
</defs>
</svg>
