<svg width="42" height="38" viewBox="0 0 42 38" fill="none" xmlns="http://www.w3.org/2000/svg">
<path d="M21 15.0938V22.9062" stroke="#F7941E" stroke-width="1.3" stroke-linecap="round" stroke-linejoin="round"/>
<path d="M18.302 2.59424L1.11448 32.2817C0.840669 32.756 0.696287 33.2939 0.695802 33.8415C0.695317 34.3891 0.838746 34.9272 1.11172 35.402C1.38469 35.8767 1.77762 36.2714 2.25115 36.5465C2.72468 36.8215 3.26218 36.9673 3.8098 36.9692H38.1848C38.7324 36.9673 39.2699 36.8215 39.7434 36.5465C40.217 36.2714 40.6099 35.8767 40.8829 35.402C41.1558 34.9272 41.2993 34.3891 41.2988 33.8415C41.2983 33.2939 41.1539 32.756 40.8801 32.2817L23.6926 2.59424C23.4209 2.11938 23.0285 1.72474 22.5552 1.45027C22.0818 1.1758 21.5444 1.03125 20.9973 1.03125C20.4502 1.03125 19.9127 1.1758 19.4394 1.45027C18.9661 1.72474 18.5737 2.11938 18.302 2.59424V2.59424Z" stroke="#F7941E" stroke-width="1.3" stroke-linecap="round" stroke-linejoin="round"/>
<path d="M21 32.2822C22.2944 32.2822 23.3438 31.2329 23.3438 29.9385C23.3438 28.6441 22.2944 27.5947 21 27.5947C19.7056 27.5947 18.6562 28.6441 18.6562 29.9385C18.6562 31.2329 19.7056 32.2822 21 32.2822Z" fill="#F7941E"/>
</svg>
