<?xml version="1.0" encoding="UTF-8"?>
<svg id="Layer_1" data-name="Layer 1" xmlns="http://www.w3.org/2000/svg" viewBox="0 0 696.07 170.33">
  <defs>
    <style>
      .cls-1 {
        fill: #0c0073;
        stroke-width: 0px;
      }
    </style>
  </defs>
  <path class="cls-1" d="M77.65,5.66c1.71,5.38,3.42,10.74,5.11,16.12.25.77.48,1.55.7,2.33h-34.08c-13.52,0-24.97,10.59-25.38,24.1-.42,14.05,10.9,25.61,24.85,25.61h37.37c6.46,0,12.03,4.98,12.32,11.44.31,6.89-5.17,12.55-11.98,12.55h-36.98C22.78,97.81.41,76.53,0,49.73-.41,22.44,21.66.11,48.85.11h73.56l-5.77,24h-24.06c-3.11-4.9-6.21-9.79-9.37-14.68-.7-1.1-1.51-2.14-2.34-3.15-.61-.75-1.38-1.36-2.37-1.55-.83-.17-1.11.14-.85.93Z"/>
  <path class="cls-1" d="M140.14,84.97c.42,27.28-21.65,49.61-48.84,49.61H17.75l5.76-24h67.26c13.52,0,24.97-10.58,25.38-24.1.42-14.04-10.9-25.61-24.85-25.61h-37.37c-6.47,0-12.03-4.97-12.32-11.44-.32-6.89,5.17-12.55,11.98-12.55h30.07c-2.18,6.26-4.36,12.5-6.54,18.75-.28.77-.02,1.07.79.96.28-.05.59-.12.82-.28.61-.43,1.29-.81,1.75-1.39,1.52-1.94,3.01-3.9,4.38-5.94,2.71-3.99,5.35-8.03,7.99-12.05,25.78,1.17,46.9,22.01,47.29,48.04Z"/>
  <g>
    <path class="cls-1" d="M194.74,81.71l36.51-40.77h-29.95l-29.6,33.68V1.95h-23.4v129.39h23.4v-42.18l31.55,42.18h29.6l-38.11-49.63Z"/>
    <path class="cls-1" d="M308.17,40.94l-24.1,61.33-23.75-61.33h-25.53l36.34,86.68-18.44,42.71h25.17l55.84-129.39h-25.53Z"/>
    <path class="cls-1" d="M305.69,1.95v23.22h40.77v106.17h25.34V25.17h40.77V1.95h-106.88Z"/>
    <path class="cls-1" d="M447.48,37.93c-8.68,0-16.48,3.9-21.62,10.64v-7.63h-21.8v90.4h23.4v-49.1c0-14,5.14-21.27,15.06-21.27,2.66,0,4.43.53,7.27,1.78l9.75-22.34c-4.08-1.59-8.16-2.48-12.06-2.48Z"/>
    <path class="cls-1" d="M469.46,40.94v90.4h23.4V40.94h-23.4ZM480.98,0c-8.33,0-14.89,6.03-14.89,14.18s6.56,14.18,14.89,14.18,15.24-6.2,15.24-14.18-6.73-14.18-15.24-14.18Z"/>
    <path class="cls-1" d="M560.74,38.28c-11.34,0-21.62,4.08-29.78,11v-8.34h-21.8v129.39h23.4v-45.9c7.8,6.02,17.55,9.57,28.18,9.57,26.23,0,47.15-21.27,47.15-47.86s-20.92-47.86-47.15-47.86ZM557.73,112.37c-13.83,0-25.17-11.34-25.17-26.23s11.34-26.23,25.17-26.23,25.52,11.34,25.52,26.23-11.34,26.23-25.52,26.23Z"/>
  </g>
  <path class="cls-1" d="M696.07,104.85c0,16.09-12.45,29.18-27.77,29.18h-58.95l4.99-20.79h53.96c3.85,0,6.98-3.76,6.98-8.39s-3.13-8.38-6.98-8.38h-22.81c-5.89,0-11.36-1.94-15.86-5.25-7.2-5.27-11.91-14.03-11.91-23.93,0-14.97,10.78-27.35,24.62-28.99,1.03-.13,2.08-.19,3.15-.19h46.64l-4.99,20.79h-41.65c-3.85,0-6.98,3.76-6.98,8.39s3.13,8.38,6.98,8.38h22.81c5.05,0,9.79,1.42,13.87,3.91,3.01,1.83,5.66,4.23,7.81,7.07,3.82,4.99,6.09,11.32,6.09,18.2Z"/>
</svg>