<svg width="21" height="10" viewBox="0 0 21 10" fill="none" xmlns="http://www.w3.org/2000/svg">
<path d="M11.6465 5.10355C11.7402 5.19732 11.8674 5.25 12 5.25H18C18.6631 5.25 19.299 5.51339 19.7678 5.98223C20.2366 6.45107 20.5 7.08696 20.5 7.75V9.5H4.22441H4.22439C3.6868 9.50002 3.16352 9.32674 2.73218 9.00587C2.30086 8.68503 1.98445 8.23369 1.82988 7.71883C1.82988 7.7188 1.82987 7.71877 1.82986 7.71875L0.510822 3.32195L0.510799 3.32188C0.499595 3.28455 0.497272 3.24512 0.504016 3.20674C0.510759 3.16836 0.526382 3.13208 0.549638 3.10081C0.572894 3.06954 0.603139 3.04414 0.637957 3.02664C0.672733 3.00915 0.711111 3.00003 0.750034 3C0.750081 3 0.750128 3 0.750174 3H1.29293L3.39648 5.10355C3.49025 5.19732 3.61743 5.25 3.75003 5.25H7.21035C7.37107 5.25 7.52199 5.17274 7.61597 5.04236C7.70994 4.91197 7.73551 4.74436 7.68469 4.59189L6.51375 1.07907L6.51375 1.07906C6.50123 1.04151 6.4978 1.00151 6.50376 0.962374C6.50972 0.923236 6.52489 0.886073 6.54802 0.853944C6.57115 0.821814 6.60157 0.795636 6.6368 0.777565C6.67196 0.759527 6.71089 0.750081 6.7504 0.75H7.29293L11.6465 5.10355Z" stroke="#0C0073" stroke-linecap="round" stroke-linejoin="round"/>
</svg>
