<svg width="12" height="10" viewBox="0 0 12 10" fill="none" xmlns="http://www.w3.org/2000/svg">
<path d="M11.2499 5.00024C11.2499 5.11628 11.2038 5.22756 11.1217 5.3096C11.0397 5.39165 10.9284 5.43774 10.8124 5.43774H2.24337L5.43439 8.62821C5.47504 8.66886 5.50728 8.71712 5.52928 8.77023C5.55128 8.82334 5.5626 8.88026 5.5626 8.93774C5.5626 8.99523 5.55128 9.05215 5.52928 9.10526C5.50728 9.15837 5.47504 9.20663 5.43439 9.24728C5.39374 9.28792 5.34548 9.32017 5.29237 9.34216C5.23926 9.36416 5.18234 9.37549 5.12486 9.37549C5.06737 9.37549 5.01045 9.36416 4.95734 9.34216C4.90423 9.32017 4.85597 9.28792 4.81532 9.24728L0.877825 5.30977C0.837147 5.26914 0.804878 5.22089 0.782861 5.16778C0.760844 5.11467 0.749512 5.05774 0.749512 5.00024C0.749512 4.94275 0.760844 4.88582 0.782861 4.83271C0.804878 4.7796 0.837147 4.73134 0.877825 4.69071L4.81532 0.753212C4.89742 0.671119 5.00876 0.625 5.12486 0.625C5.24095 0.625 5.35229 0.671119 5.43439 0.753212C5.51648 0.835305 5.5626 0.946647 5.5626 1.06274C5.5626 1.17884 5.51648 1.29018 5.43439 1.37227L2.24337 4.56274H10.8124C10.9284 4.56274 11.0397 4.60884 11.1217 4.69088C11.2038 4.77293 11.2499 4.88421 11.2499 5.00024Z" fill="#000C73"/>
</svg>
