<svg width="28" height="29" viewBox="0 0 28 29" fill="none" xmlns="http://www.w3.org/2000/svg">
<path d="M27.7309 11.7581H26.6032V11.7H14.0032V17.3H21.9153C20.761 20.5599 17.6593 22.9 14.0032 22.9C9.36427 22.9 5.60317 19.1389 5.60317 14.5C5.60317 9.8611 9.36427 6.1 14.0032 6.1C16.1445 6.1 18.0926 6.9078 19.5759 8.2273L23.5358 4.2674C21.0354 1.9371 17.6908 0.5 14.0032 0.5C6.27167 0.5 0.00317383 6.7685 0.00317383 14.5C0.00317383 22.2315 6.27167 28.5 14.0032 28.5C21.7347 28.5 28.0032 22.2315 28.0032 14.5C28.0032 13.5613 27.9066 12.645 27.7309 11.7581Z" fill="#FFC107"/>
<path d="M1.61743 7.9837L6.21713 11.357C7.46173 8.2756 10.4759 6.1 14.0032 6.1C16.1445 6.1 18.0926 6.9078 19.5759 8.2273L23.5358 4.2674C21.0354 1.9371 17.6908 0.5 14.0032 0.5C8.62583 0.5 3.96243 3.5359 1.61743 7.9837Z" fill="#FF3D00"/>
<path d="M14.0032 28.5001C17.6194 28.5001 20.9052 27.1162 23.3895 24.8657L19.0565 21.1991C17.6037 22.304 15.8284 22.9015 14.0032 22.9001C10.3618 22.9001 7.26987 20.5782 6.10507 17.3379L1.53967 20.8554C3.85667 25.3893 8.56207 28.5001 14.0032 28.5001Z" fill="#4CAF50"/>
<path d="M27.7309 11.7573H26.6032V11.6992H14.0032V17.2992H21.9153C21.3631 18.8507 20.3685 20.2064 19.0544 21.1989L19.0565 21.1975L23.3895 24.8641C23.0829 25.1427 28.0032 21.4992 28.0032 14.4992C28.0032 13.5605 27.9066 12.6442 27.7309 11.7573Z" fill="#2174EE"/>
</svg>
