<svg width="36" height="36" viewBox="0 0 36 36" fill="none" xmlns="http://www.w3.org/2000/svg">
<circle cx="18" cy="18" r="18" fill="#FEFEFE"/>
<g clip-path="url(#clip0_4038_8216)">
<path d="M27.1301 22.1377C26.9734 23.3287 26.3885 24.4218 25.4847 25.2131C24.5809 26.0043 23.42 26.4395 22.2188 26.4373C15.2402 26.4373 9.56251 20.7596 9.56251 13.7811C9.56035 12.5799 9.99553 11.4189 10.7868 10.5151C11.578 9.61134 12.6712 9.02646 13.8621 8.86974C14.1633 8.83297 14.4683 8.89458 14.7315 9.04538C14.9948 9.19618 15.2022 9.42808 15.3229 9.70646L17.1791 13.8505V13.8611C17.2715 14.0741 17.3096 14.3068 17.2901 14.5382C17.2707 14.7697 17.1942 14.9927 17.0675 15.1873C17.0517 15.2111 17.035 15.233 17.0174 15.255L15.1875 17.4241C15.8458 18.7618 17.245 20.1488 18.6003 20.8088L20.7396 18.9886C20.7606 18.9709 20.7826 18.9545 20.8055 18.9394C21 18.8097 21.2237 18.7305 21.4565 18.709C21.6893 18.6875 21.9238 18.7244 22.1388 18.8163L22.1502 18.8216L26.2907 20.677C26.5696 20.7972 26.8021 21.0044 26.9534 21.2677C27.1047 21.531 27.1667 21.8362 27.1301 22.1377Z" fill="#0C0073"/>
</g>
<defs>
<clipPath id="clip0_4038_8216">
<rect width="22.5" height="22.5" fill="white" transform="translate(6.75 6.75)"/>
</clipPath>
</defs>
</svg>
