<svg width="36" height="36" viewBox="0 0 36 36" fill="none" xmlns="http://www.w3.org/2000/svg">
<circle cx="18" cy="18" r="18" fill="#FEFEFE"/>
<g clip-path="url(#clip0_4203_12233)">
<path d="M27.1301 22.138C26.9734 23.3289 26.3885 24.4221 25.4847 25.2133C24.5809 26.0045 23.42 26.4397 22.2188 26.4376C15.2402 26.4376 9.5625 20.7598 9.5625 13.7813C9.56035 12.5801 9.99553 11.4192 10.7868 10.5154C11.578 9.61158 12.6712 9.0267 13.8621 8.86999C14.1633 8.83322 14.4682 8.89483 14.7315 9.04563C14.9948 9.19643 15.2022 9.42833 15.3229 9.70671L17.1791 13.8508V13.8613C17.2715 14.0744 17.3096 14.307 17.2901 14.5385C17.2707 14.7699 17.1942 14.9929 17.0675 15.1876C17.0517 15.2113 17.035 15.2333 17.0174 15.2552L15.1875 17.4244C15.8458 18.7621 17.245 20.149 18.6003 20.8091L20.7396 18.9888C20.7606 18.9712 20.7826 18.9547 20.8055 18.9396C21 18.8099 21.2237 18.7307 21.4565 18.7092C21.6893 18.6877 21.9238 18.7246 22.1388 18.8166L22.1502 18.8218L26.2907 20.6772C26.5696 20.7974 26.8021 21.0047 26.9534 21.268C27.1047 21.5313 27.1667 21.8365 27.1301 22.138Z" fill="#F7616D"/>
</g>
<defs>
<clipPath id="clip0_4203_12233">
<rect width="22.5" height="22.5" fill="white" transform="translate(6.75 6.75)"/>
</clipPath>
</defs>
</svg>
