<svg width="18" height="18" viewBox="0 0 18 18" fill="none" xmlns="http://www.w3.org/2000/svg">
<path d="M10.7065 2.66693C10.7256 2.59555 10.7586 2.52862 10.8035 2.46998C10.8485 2.41134 10.9046 2.36214 10.9686 2.32518C11.0326 2.28822 11.1032 2.26423 11.1765 2.25459C11.2497 2.24494 11.3242 2.24983 11.3956 2.26896C12.4383 2.54104 13.3897 3.08617 14.1518 3.84821C14.9138 4.61025 15.4589 5.56165 15.731 6.60443C15.7502 6.67581 15.755 6.75026 15.7454 6.82352C15.7358 6.89678 15.7118 6.96743 15.6748 7.03142C15.6378 7.09541 15.5886 7.15149 15.53 7.19646C15.4714 7.24143 15.4044 7.2744 15.3331 7.2935C15.2855 7.30598 15.2366 7.31236 15.1875 7.31248C15.0636 7.31248 14.9431 7.27153 14.8448 7.196C14.7465 7.12048 14.6759 7.0146 14.644 6.89482C14.4221 6.04357 13.9772 5.26688 13.3551 4.64484C12.7331 4.02279 11.9564 3.57789 11.1052 3.356C11.0337 3.33698 10.9667 3.30406 10.908 3.25912C10.8493 3.21419 10.8 3.15812 10.763 3.09412C10.7259 3.03012 10.7019 2.95945 10.6922 2.88615C10.6825 2.81285 10.6874 2.73836 10.7065 2.66693ZM10.5427 5.606C11.5123 5.86475 12.1352 6.48771 12.394 7.45732C12.4259 7.5771 12.4965 7.68298 12.5948 7.7585C12.6931 7.83403 12.8136 7.87498 12.9375 7.87498C12.9866 7.87486 13.0355 7.86848 13.0831 7.856C13.1544 7.8369 13.2214 7.80393 13.28 7.75896C13.3386 7.71399 13.3878 7.65791 13.4248 7.59392C13.4618 7.52993 13.4858 7.45928 13.4954 7.38602C13.505 7.31276 13.5002 7.23831 13.481 7.16693C13.121 5.81975 12.1802 4.87896 10.8331 4.51896C10.7617 4.4999 10.6872 4.49507 10.614 4.50477C10.5408 4.51447 10.4702 4.5385 10.4062 4.57549C10.3422 4.61248 10.2862 4.6617 10.2413 4.72034C10.1963 4.77899 10.1634 4.84591 10.1443 4.91728C10.1253 4.98866 10.1205 5.06309 10.1302 5.13633C10.1398 5.20957 10.1639 5.28018 10.2009 5.34413C10.2379 5.40809 10.2871 5.46413 10.3457 5.50906C10.4044 5.55399 10.4713 5.58693 10.5427 5.606ZM16.3041 12.3103C16.1787 13.263 15.7108 14.1376 14.9878 14.7706C14.2647 15.4036 13.336 15.7517 12.375 15.75C6.79219 15.75 2.25001 11.2078 2.25001 5.62498C2.24828 4.66401 2.59643 3.73528 3.22941 3.01223C3.8624 2.28919 4.73694 1.82129 5.68969 1.69592C5.93062 1.6665 6.1746 1.71579 6.38522 1.83643C6.59583 1.95707 6.76178 2.14259 6.85829 2.36529L8.34329 5.68053V5.68896C8.41718 5.85944 8.44769 6.04556 8.43211 6.23071C8.41653 6.41585 8.35533 6.59425 8.25399 6.74998C8.24133 6.76896 8.22798 6.78654 8.21391 6.80412L6.75001 8.53943C7.27665 9.60959 8.39602 10.7191 9.48024 11.2472L11.1916 9.791C11.2085 9.77687 11.2261 9.76372 11.2444 9.75162C11.4 9.64784 11.579 9.58449 11.7652 9.5673C11.9515 9.55012 12.1391 9.57963 12.311 9.65318L12.3202 9.6574L15.6326 11.1417C15.8557 11.2379 16.0417 11.4037 16.1627 11.6143C16.2837 11.825 16.3333 12.0691 16.3041 12.3103ZM15.1875 12.1697C15.1875 12.1697 15.1826 12.1697 15.1798 12.1697L11.8751 10.6896L10.163 12.1458C10.1464 12.1598 10.129 12.173 10.1109 12.1851C9.94905 12.2931 9.76191 12.3573 9.56781 12.3714C9.37371 12.3854 9.17928 12.3489 9.00352 12.2653C7.68657 11.629 6.37383 10.3261 5.7368 9.02318C5.65245 8.84871 5.6146 8.6554 5.62691 8.46199C5.63923 8.26859 5.70131 8.08164 5.80712 7.91928C5.81904 7.90021 5.83244 7.88211 5.84719 7.86514L7.31251 6.12771L5.83594 2.82303C5.83567 2.82022 5.83567 2.81739 5.83594 2.81459C5.15409 2.90353 4.52805 3.23799 4.07505 3.75531C3.62205 4.27264 3.37316 4.93735 3.37501 5.62498C3.37761 8.01113 4.32666 10.2988 6.01392 11.9861C7.70119 13.6733 9.98886 14.6224 12.375 14.625C13.0622 14.6273 13.7267 14.3793 14.2444 13.9273C14.762 13.4753 15.0973 12.8502 15.1875 12.169V12.1697Z" fill="black"/>
</svg>
