<svg width="24" height="24" viewBox="0 0 24 24" fill="none" xmlns="http://www.w3.org/2000/svg">
<path d="M15.4325 14.1851C15.5409 14.113 15.6656 14.069 15.7952 14.0573C15.9249 14.0455 16.0554 14.0662 16.175 14.1176L20.7886 16.1847C20.9441 16.2512 21.0739 16.3662 21.1585 16.5126C21.2432 16.6589 21.2782 16.8288 21.2582 16.9967C21.1062 18.1325 20.5469 19.1745 19.6842 19.9288C18.8215 20.6832 17.7143 21.0985 16.5683 21.0977C13.0397 21.0977 9.65562 19.6959 7.16051 17.2008C4.66541 14.7057 3.26367 11.3216 3.26367 7.79301C3.2628 6.64705 3.67815 5.53978 4.43249 4.67711C5.18683 3.81445 6.2288 3.25511 7.36463 3.10312C7.53254 3.08318 7.70239 3.11814 7.84876 3.20279C7.99513 3.28744 8.11016 3.41722 8.17661 3.5727L10.2437 8.19019C10.2945 8.30879 10.3152 8.4381 10.3039 8.56662C10.2927 8.69514 10.2498 8.81889 10.1792 8.92684L8.08856 11.4127C8.01441 11.5246 7.97055 11.6538 7.96129 11.7877C7.95203 11.9216 7.97768 12.0557 8.03574 12.1767C8.84478 13.8329 10.5568 15.5244 12.2179 16.3256C12.3396 16.3834 12.4742 16.4085 12.6086 16.3983C12.7429 16.3882 12.8722 16.3433 12.9839 16.2679L15.4325 14.1851Z" stroke="#FEFEFE" stroke-linecap="round" stroke-linejoin="round"/>
</svg>
