<svg width="15" height="14" viewBox="0 0 15 14" fill="none" xmlns="http://www.w3.org/2000/svg">
<path d="M0.75 1.50006V6.17193C0.75 6.70318 0.959375 7.21256 1.33438 7.58756L6.83437 13.0876C7.61562 13.8688 8.88125 13.8688 9.6625 13.0876L13.8344 8.91568C14.6156 8.13443 14.6156 6.86881 13.8344 6.08756L8.33437 0.58756C7.95937 0.21256 7.45 0.00318469 6.91875 0.00318469H2.25C1.42188 5.96852e-05 0.75 0.671935 0.75 1.50006ZM4.25 2.50006C4.51522 2.50006 4.76957 2.60542 4.95711 2.79295C5.14464 2.98049 5.25 3.23484 5.25 3.50006C5.25 3.76528 5.14464 4.01963 4.95711 4.20717C4.76957 4.3947 4.51522 4.50006 4.25 4.50006C3.98478 4.50006 3.73043 4.3947 3.54289 4.20717C3.35536 4.01963 3.25 3.76528 3.25 3.50006C3.25 3.23484 3.35536 2.98049 3.54289 2.79295C3.73043 2.60542 3.98478 2.50006 4.25 2.50006Z" fill="#0C0073"/>
</svg>
