<svg width="17" height="16" viewBox="0 0 17 16" fill="none" xmlns="http://www.w3.org/2000/svg">
<path d="M6.20312 2.15L7.29063 4H7.25H5C4.30937 4 3.75 3.44062 3.75 2.75C3.75 2.05938 4.30937 1.5 5 1.5H5.06875C5.53437 1.5 5.96875 1.74688 6.20312 2.15ZM2.25 2.75C2.25 3.2 2.35938 3.625 2.55 4H1.25C0.696875 4 0.25 4.44688 0.25 5V7C0.25 7.55312 0.696875 8 1.25 8H15.25C15.8031 8 16.25 7.55312 16.25 7V5C16.25 4.44688 15.8031 4 15.25 4H13.95C14.1406 3.625 14.25 3.2 14.25 2.75C14.25 1.23125 13.0188 0 11.5 0H11.4312C10.4344 0 9.50938 0.528125 9.00313 1.3875L8.25 2.67188L7.49687 1.39062C6.99062 0.528125 6.06562 0 5.06875 0H5C3.48125 0 2.25 1.23125 2.25 2.75ZM12.75 2.75C12.75 3.44062 12.1906 4 11.5 4H9.25H9.20938L10.2969 2.15C10.5344 1.74688 10.9656 1.5 11.4312 1.5H11.5C12.1906 1.5 12.75 2.05938 12.75 2.75ZM1.25 9V14.5C1.25 15.3281 1.92188 16 2.75 16H7.25V9H1.25ZM9.25 16H13.75C14.5781 16 15.25 15.3281 15.25 14.5V9H9.25V16Z" fill="#0C0073"/>
</svg>
