<svg width="66" height="70" viewBox="0 0 66 70" fill="none" xmlns="http://www.w3.org/2000/svg">
<path d="M42.5295 26.9262L17.9667 49.2077C17.9667 49.2077 6.67097 24.8941 15.7957 12.751C24.9203 0.6078 43.2333 12.0865 42.5295 26.9262Z" fill="#FF9AA4"/>
<path d="M42.5295 26.9262L17.9666 49.2077C17.9666 49.2077 41.0772 62.8264 54.0239 54.9665C66.9706 47.1066 57.3823 27.6886 42.5295 26.9262Z" fill="#FF9AA4"/>
<path d="M42.5295 26.9262L17.9666 49.2078C17.9666 49.2078 7.29753 25.5449 16.4664 13.525C25.6354 1.50514 43.498 12.368 42.5295 26.9262Z" fill="url(#paint0_linear_4203_12742)"/>
<path d="M42.5293 26.9263L17.9664 49.2078C17.9664 49.2078 40.4591 62.1317 53.3528 54.1926C66.2465 46.2535 57.1173 27.4073 42.5293 26.9263Z" fill="url(#paint1_linear_4203_12742)"/>
<path d="M42.5294 26.9265L17.9665 49.208C17.9665 49.208 10.8634 29.5029 20.4559 17.8875C30.0308 6.24565 44.9631 13.9865 42.5294 26.9265Z" fill="#FF9AA4"/>
<path d="M42.5296 26.9262L17.9667 49.2078C17.9667 49.2078 36.8846 58.218 49.3899 49.8127C61.8953 41.4074 55.6524 25.789 42.5296 26.9262Z" fill="#FF9AA4"/>
<path d="M42.5295 26.9263L17.9666 49.2079C17.9666 49.2079 11.4284 30.1184 21.0739 18.5822C30.7194 7.0459 45.1839 14.259 42.5295 26.9263Z" fill="url(#paint2_linear_4203_12742)"/>
<path d="M42.5294 26.9262L17.9665 49.2077C17.9665 49.2077 36.3196 57.6023 48.7455 49.1355C61.1978 40.651 55.4228 25.5603 42.5294 26.9262Z" fill="url(#paint3_linear_4203_12742)"/>
<defs>
<linearGradient id="paint0_linear_4203_12742" x1="13.3197" y1="15.4237" x2="20.9568" y2="23.8557" gradientUnits="userSpaceOnUse">
<stop stop-color="#FE7583"/>
<stop offset="1" stop-color="#F1505B"/>
</linearGradient>
<linearGradient id="paint1_linear_4203_12742" x1="51.1956" y1="57.2214" x2="44.0005" y2="49.2775" gradientUnits="userSpaceOnUse">
<stop stop-color="#FE7583"/>
<stop offset="1" stop-color="#F1505B"/>
</linearGradient>
<linearGradient id="paint2_linear_4203_12742" x1="32.5016" y1="36.5918" x2="19.0538" y2="21.7445" gradientUnits="userSpaceOnUse">
<stop stop-color="#F1505B"/>
<stop offset="1" stop-color="#FE7583"/>
</linearGradient>
<linearGradient id="paint3_linear_4203_12742" x1="38.9673" y1="43.7268" x2="27.9951" y2="31.6128" gradientUnits="userSpaceOnUse">
<stop stop-color="#FE7583"/>
<stop offset="1" stop-color="#F1505B"/>
</linearGradient>
</defs>
</svg>
