<svg width="19" height="16" viewBox="0 0 19 16" fill="none" xmlns="http://www.w3.org/2000/svg">
<path d="M13.25 3V3.02187C13.0844 3.00937 12.9187 3 12.75 3H8.75C8.23438 3 7.73438 3.06562 7.25625 3.1875C7.25312 3.125 7.25 3.0625 7.25 3C7.25 1.34375 8.59375 0 10.25 0C11.9062 0 13.25 1.34375 13.25 3ZM12.75 4C12.8594 4 12.9688 4.00313 13.075 4.00938C13.2063 4.01875 13.3375 4.03125 13.4688 4.05C14.0188 3.40938 14.8375 3 15.75 3H16.1094C16.4344 3 16.6719 3.30625 16.5938 3.62188L16.1625 5.34688C16.6562 5.80938 17.0594 6.37187 17.3344 7H17.75C18.3031 7 18.75 7.44688 18.75 8V11C18.75 11.5531 18.3031 12 17.75 12H16.75C16.4656 12.3781 16.1281 12.7156 15.75 13V15C15.75 15.5531 15.3031 16 14.75 16H13.75C13.1969 16 12.75 15.5531 12.75 15V14H8.75V15C8.75 15.5531 8.30312 16 7.75 16H6.75C6.19688 16 5.75 15.5531 5.75 15V13C4.65937 12.1812 3.91563 10.9281 3.775 9.5H2.875C1.7 9.5 0.75 8.55 0.75 7.375C0.75 6.2 1.7 5.25 2.875 5.25H3C3.41563 5.25 3.75 5.58437 3.75 6C3.75 6.41563 3.41563 6.75 3 6.75H2.875C2.53125 6.75 2.25 7.03125 2.25 7.375C2.25 7.71875 2.53125 8 2.875 8H3.85C4.22812 6.13125 5.65312 4.64062 7.48438 4.1625C7.8875 4.05625 8.3125 4 8.75 4H12.75ZM14.75 8.25C14.75 8.05109 14.671 7.86032 14.5303 7.71967C14.3897 7.57902 14.1989 7.5 14 7.5C13.8011 7.5 13.6103 7.57902 13.4697 7.71967C13.329 7.86032 13.25 8.05109 13.25 8.25C13.25 8.44891 13.329 8.63968 13.4697 8.78033C13.6103 8.92098 13.8011 9 14 9C14.1989 9 14.3897 8.92098 14.5303 8.78033C14.671 8.63968 14.75 8.44891 14.75 8.25Z" fill="#0C0073"/>
</svg>
