<svg width="91" height="22" viewBox="0 0 91 22" fill="none" xmlns="http://www.w3.org/2000/svg">
<g clip-path="url(#clip0_4413_996)">
<path d="M10.1515 0.731004C10.3751 1.42589 10.5986 2.11819 10.8195 2.81308C10.8522 2.91253 10.8823 3.01328 10.9111 3.11402H6.45565C4.68812 3.11402 3.19122 4.48184 3.13762 6.22681C3.08271 8.04152 4.56262 9.53462 6.38636 9.53462H11.2719C12.1164 9.53462 12.8446 10.1778 12.8825 11.0122C12.9231 11.9021 12.2066 12.6332 11.3163 12.6332H6.48179C2.97812 12.6332 0.0536034 9.88465 2.50625e-06 6.42313C-0.0535984 2.89833 2.8317 0.0141602 6.38636 0.0141602H16.0031L15.2488 3.11402H12.1034C11.6968 2.48114 11.2915 1.84954 10.8784 1.21794C10.7869 1.07586 10.681 0.941536 10.5725 0.811084C10.4927 0.714213 10.392 0.635425 10.2626 0.610884C10.1541 0.588927 10.1175 0.628967 10.1515 0.731004Z" fill="#FF8391"/>
<path d="M18.3211 10.9748C18.376 14.4983 15.4907 17.3825 11.936 17.3825H2.32053L3.07355 14.2826H11.8667C13.6342 14.2826 15.1311 12.9161 15.1848 11.1698C15.2397 9.35639 13.7598 7.862 11.936 7.862H7.05048C6.20463 7.862 5.47775 7.22007 5.43984 6.3844C5.398 5.49448 6.11573 4.76343 7.00603 4.76343H10.9372C10.6522 5.57198 10.3672 6.37794 10.0822 7.1852C10.0456 7.28465 10.0796 7.3234 10.1855 7.30919C10.2221 7.30273 10.2626 7.29369 10.2927 7.27303C10.3724 7.21749 10.4613 7.16841 10.5215 7.09349C10.7202 6.84292 10.915 6.58976 11.0941 6.32628C11.4484 5.81092 11.7935 5.28911 12.1386 4.76989C15.509 4.921 18.2701 7.61272 18.3211 10.9748Z" fill="#FF8391"/>
<path d="M25.4591 10.5537L30.2322 5.28782H26.3167L22.447 9.63797V0.251831H19.3878V16.964H22.447V11.516L26.5717 16.964H30.4414L25.4591 10.5537Z" fill="#FF8391"/>
<path d="M40.2883 5.28784L37.1376 13.2093L34.0327 5.28784H30.695L35.4459 16.4835L33.0352 22H36.3257L43.6259 5.28784H40.2883Z" fill="#FF8391"/>
<path d="M39.9641 0.251831V3.25095H45.2941V16.964H48.6069V3.25095H53.9369V0.251831H39.9641Z" fill="#FF8391"/>
<path d="M58.5008 4.89905C57.3661 4.89905 56.3463 5.40278 55.6744 6.27332V5.28782H52.8244V16.964H55.8835V10.6222C55.8835 8.81392 56.5555 7.87492 57.8524 7.87492C58.2002 7.87492 58.4316 7.94337 58.8028 8.10482L60.0775 5.21937C59.5441 5.014 59.0107 4.89905 58.5008 4.89905Z" fill="#FF8391"/>
<path d="M61.3744 5.28784V16.964H64.4335V5.28784H61.3744Z" fill="#FF8391"/>
<path fill-rule="evenodd" clip-rule="evenodd" d="M62.2414 3.04196C61.6705 2.602 61 2.08539 61 1.18981C61 0.201119 62.1182 -0.500096 63.0331 0.45058V3.50002C62.8298 3.50002 62.6265 3.34347 62.4154 3.17676C62.3589 3.13257 62.3009 3.08764 62.2414 3.04196Z" fill="#FF8391"/>
<path d="M63.5267 3.17666C64.1251 2.70539 64.9422 2.17841 64.9422 1.18992C64.9422 0.201427 63.824 -0.500194 62.9091 0.450482V3.49992C63.1124 3.49992 63.3157 3.34337 63.5267 3.17666Z" fill="#FF8391"/>
<path d="M73.3078 4.94434C71.8252 4.94434 70.4813 5.47131 69.4145 6.36511V5.2879H66.5645V22.0001H69.6237V16.0716C70.6434 16.8491 71.9181 17.3076 73.3078 17.3076C76.7369 17.3076 79.4719 14.5604 79.4719 11.126C79.4719 7.69159 76.7369 4.94434 73.3078 4.94434ZM72.9143 14.5139C71.1062 14.5139 69.6237 13.0492 69.6237 11.126C69.6237 9.20278 71.1062 7.73809 72.9143 7.73809C74.7223 7.73809 76.2506 9.20278 76.2506 11.126C76.2506 13.0492 74.7681 14.5139 72.9143 14.5139Z" fill="#FF8391"/>
<path d="M91 13.5426C91 15.6208 89.3724 17.3115 87.3695 17.3115H79.6628L80.3151 14.6262H87.3695C87.8728 14.6262 88.282 14.1406 88.282 13.5426C88.282 12.9446 87.8728 12.4602 87.3695 12.4602H84.3875C83.6175 12.4602 82.9023 12.2096 82.314 11.7821C81.3728 11.1014 80.757 9.96998 80.757 8.69128C80.757 6.75774 82.1663 5.15873 83.9757 4.9469C84.1103 4.93011 84.2476 4.92236 84.3875 4.92236H90.4849L89.8326 7.60762H84.3875C83.8842 7.60762 83.475 8.09327 83.475 8.69128C83.475 9.2893 83.8842 9.77365 84.3875 9.77365H87.3695C88.0297 9.77365 88.6494 9.95706 89.1828 10.2787C89.5763 10.515 89.9228 10.825 90.2038 11.1918C90.7032 11.8364 91 12.6539 91 13.5426Z" fill="#FF8391"/>
</g>
<defs>
<clipPath id="clip0_4413_996">
<rect width="91" height="22" fill="white"/>
</clipPath>
</defs>
</svg>
