<svg width="24" height="24" viewBox="0 0 24 24" fill="none" xmlns="http://www.w3.org/2000/svg">
<g id="AirplaneTakeoff" clip-path="url(#clip0_486_3382)">
<path id="Vector" d="M2.25 20.25H15.75" stroke="#181818" stroke-linecap="round" stroke-linejoin="round"/>
<path id="Vector_2" d="M8.2499 10.9229L5.49834 8.2501C5.40474 8.16588 5.33386 8.05945 5.29222 7.94063C5.25058 7.82181 5.23952 7.69441 5.26007 7.57019C5.28062 7.44597 5.33211 7.32892 5.40979 7.22984C5.48748 7.13075 5.58886 7.05282 5.70459 7.00323L6.3749 6.7501L11.7683 8.73479L16.9096 5.66448C17.5267 5.3013 18.2534 5.17085 18.9584 5.29671C19.6633 5.42256 20.3 5.79642 20.7533 6.35073L22.4999 8.59135L8.68021 16.8414C8.12195 17.1664 7.47367 17.3026 6.8318 17.2296C6.18993 17.1566 5.58877 16.8784 5.11771 16.4364L1.73709 13.1251C1.64617 13.0399 1.57792 12.9333 1.5385 12.8151C1.49909 12.6969 1.48975 12.5707 1.51134 12.448C1.53293 12.3253 1.58476 12.2098 1.66215 12.1122C1.73953 12.0145 1.84004 11.9376 1.95459 11.8885L2.2499 11.7442L5.23021 12.7501L8.2499 10.9229Z" stroke="#181818" stroke-linecap="round" stroke-linejoin="round"/>
</g>
<defs>
<clipPath id="clip0_486_3382">
<rect width="24" height="24" fill="white"/>
</clipPath>
</defs>
</svg>
