<svg width="25" height="24" viewBox="0 0 25 24" fill="none" xmlns="http://www.w3.org/2000/svg">
<g id="AirplaneLanding" clip-path="url(#clip0_486_3378)">
<path id="Vector" d="M10.25 20.25H23.75" stroke="#181818" stroke-linecap="round" stroke-linejoin="round"/>
<path id="Vector_2" d="M6.125 7.07443L10.25 8.25006V4.50006C10.25 4.38121 10.2782 4.26406 10.3324 4.15827C10.3865 4.05248 10.465 3.96107 10.5615 3.89158C10.6579 3.82209 10.7694 3.7765 10.8869 3.75858C11.0044 3.74065 11.1244 3.75091 11.2372 3.78849L11.75 3.96006L14 9.32256L20.0525 11.0101C20.6851 11.1857 21.2426 11.564 21.6396 12.0869C22.0365 12.6098 22.2509 13.2485 22.25 13.9051V17.2501L5.69094 12.6132C5.06064 12.4367 4.50538 12.0588 4.10981 11.5373C3.71424 11.0158 3.50009 10.3793 3.5 9.72474V4.50006C3.49999 4.38121 3.52823 4.26406 3.58238 4.15827C3.63653 4.05248 3.71504 3.96107 3.81145 3.89158C3.90786 3.82209 4.01941 3.7765 4.13689 3.75858C4.25438 3.74065 4.37444 3.75091 4.48719 3.78849L5 3.96006L6.125 7.07443Z" stroke="#181818" stroke-linecap="round" stroke-linejoin="round"/>
</g>
<defs>
<clipPath id="clip0_486_3378">
<rect width="24" height="24" fill="white" transform="translate(0.5)"/>
</clipPath>
</defs>
</svg>
