<svg width="24" height="24" viewBox="0 0 24 24" fill="none" xmlns="http://www.w3.org/2000/svg">
<g clip-path="url(#clip0_3066_7430)">
<path d="M6.75 20.25H20.25" stroke="#0C0C0C" stroke-linecap="round" stroke-linejoin="round"/>
<path d="M13.4998 9.75H19.4998C20.2954 9.75 21.0585 10.0661 21.6211 10.6287C22.1837 11.1913 22.4998 11.9544 22.4998 12.75V15H5.72416C5.07905 15 4.45111 14.7921 3.93351 14.4071C3.4159 14.022 3.0362 13.4804 2.85073 12.8625L1.53166 8.46563C1.49805 8.35365 1.49108 8.23537 1.51131 8.12022C1.53154 8.00507 1.57841 7.89625 1.64818 7.80243C1.71795 7.70862 1.80868 7.63242 1.91314 7.57991C2.01759 7.5274 2.13288 7.50003 2.24979 7.5H2.99979L5.24979 9.75H8.7101L7.53916 6.23719C7.5016 6.12452 7.49134 6.00454 7.50921 5.88712C7.52709 5.76971 7.57259 5.65822 7.64198 5.56183C7.71136 5.46544 7.80265 5.38691 7.90832 5.3327C8.01399 5.27848 8.13102 5.25014 8.24979 5.25H8.99979L13.4998 9.75Z" stroke="#0C0C0C" stroke-linecap="round" stroke-linejoin="round"/>
</g>
<defs>
<clipPath id="clip0_3066_7430">
<rect width="24" height="24" fill="white"/>
</clipPath>
</defs>
</svg>
