<svg width="24" height="24" viewBox="0 0 24 24" fill="none" xmlns="http://www.w3.org/2000/svg">
<g id="bag">
<path id="Vector" d="M5 22.013V11.513C5 10.0096 5.42156 8.67761 6.26467 7.51717C7.107 6.35672 8.18111 5.52294 9.487 5.01583V4.513C9.487 3.81533 9.732 3.22189 10.222 2.73267C10.712 2.24422 11.3066 2 12.0058 2C12.7051 2 13.2977 2.24422 13.7838 2.73267C14.2699 3.22111 14.513 3.81456 14.513 4.513V5.01467C15.8189 5.52256 16.893 6.35672 17.7353 7.51717C18.5784 8.67761 19 10.0096 19 11.513V22.013H5ZM7.91667 13.263H14.9167V15.5963H16.0833V12.0963H7.91667V13.263ZM10.6537 4.67517C10.8823 4.62072 11.1067 4.58028 11.3268 4.55383C11.5469 4.52661 11.7713 4.513 12 4.513C12.2287 4.513 12.4531 4.52622 12.6732 4.55267C12.8933 4.57911 13.1177 4.61994 13.3463 4.67517V4.513C13.3463 4.13189 13.2172 3.81222 12.959 3.554C12.7016 3.29578 12.3819 3.16667 12 3.16667C11.6181 3.16667 11.2984 3.29578 11.041 3.554C10.7828 3.81144 10.6537 4.13111 10.6537 4.513V4.67517Z" fill="#0C0C0C"/>
</g>
</svg>
