<svg width="32" height="32" viewBox="0 0 32 32" fill="none" xmlns="http://www.w3.org/2000/svg">
<g id="bowl-fill">
<path id="Vector" d="M10.667 2.00008C10.667 1.2637 10.07 0.666748 9.33366 0.666748C8.59729 0.666748 8.00033 1.2637 8.00033 2.00008V3.33341C8.00033 3.34256 8.00089 3.35055 8.00141 3.35799C8.00546 3.41599 8.00721 3.44092 7.72418 3.72393L7.69735 3.75072C7.34165 4.10557 6.66699 4.77863 6.66699 6.00008V7.33342C6.66699 8.06979 7.26395 8.66675 8.00033 8.66675C8.7367 8.66675 9.33366 8.06979 9.33366 7.33342V6.00008C9.33366 5.99093 9.3331 5.98295 9.33258 5.97551C9.32853 5.91751 9.32678 5.89257 9.60981 5.60956L9.63663 5.58277C9.99234 5.22792 10.667 4.55487 10.667 3.33341V2.00008ZM2.66699 12.0001C2.66699 11.2637 3.26395 10.6667 4.00033 10.6667H28.0003C28.7367 10.6667 29.3337 11.2637 29.3337 12.0001V13.3334C29.3337 18.8009 26.0427 23.4998 21.3337 25.5573V26.6667C21.3337 27.4031 20.7367 28.0001 20.0003 28.0001H12.0003C11.264 28.0001 10.667 27.4031 10.667 26.6667V25.5573C5.95791 23.4998 2.66699 18.8009 2.66699 13.3334V12.0001ZM24.0003 0.666748C24.7367 0.666748 25.3337 1.2637 25.3337 2.00008V3.33341C25.3337 4.55487 24.659 5.22792 24.3033 5.58277L24.2765 5.60956C23.9934 5.89257 23.9953 5.91751 23.9993 5.97551C23.9998 5.98295 24.0003 5.99093 24.0003 6.00008V7.33342C24.0003 8.06979 23.4034 8.66675 22.667 8.66675C21.9306 8.66675 21.3337 8.06979 21.3337 7.33342V6.00008C21.3337 4.77863 22.0083 4.10557 22.3641 3.75072L22.3909 3.72393C22.6739 3.44092 22.6721 3.41599 22.6681 3.35799C22.6675 3.35055 22.667 3.34256 22.667 3.33341V2.00008C22.667 1.2637 23.2639 0.666748 24.0003 0.666748ZM18.0003 2.00008C18.0003 1.2637 17.4034 0.666748 16.667 0.666748C15.9306 0.666748 15.3337 1.2637 15.3337 2.00008V3.33341C15.3337 3.34256 15.3342 3.35055 15.3347 3.35799C15.3387 3.41599 15.3406 3.44092 15.0575 3.72393L15.0307 3.75072C14.675 4.10557 14.0003 4.77863 14.0003 6.00008V7.33342C14.0003 8.06979 14.5973 8.66675 15.3337 8.66675C16.0701 8.66675 16.667 8.06979 16.667 7.33342V6.00008C16.667 5.99093 16.6665 5.98295 16.6659 5.97551C16.6619 5.91751 16.6601 5.89257 16.9431 5.60956L16.9699 5.58277C17.3257 5.22792 18.0003 4.55487 18.0003 3.33341V2.00008Z" fill="#0C0073"/>
</g>
</svg>
