<svg width="72" height="72" viewBox="0 0 72 72" fill="none" xmlns="http://www.w3.org/2000/svg">
<g clip-path="url(#clip0_2523_389)">
<path opacity="0.2" d="M11.25 24.75H60.75V13.5C60.75 12.9033 60.5129 12.331 60.091 11.909C59.669 11.4871 59.0967 11.25 58.5 11.25H13.5C12.9033 11.25 12.331 11.4871 11.909 11.909C11.4871 12.331 11.25 12.9033 11.25 13.5V24.75Z" fill="#D51C1C"/>
<path d="M58.5 11.25H13.5C12.2574 11.25 11.25 12.2574 11.25 13.5V58.5C11.25 59.7426 12.2574 60.75 13.5 60.75H58.5C59.7426 60.75 60.75 59.7426 60.75 58.5V13.5C60.75 12.2574 59.7426 11.25 58.5 11.25Z" stroke="#D51C1C" stroke-width="2.5" stroke-linecap="round" stroke-linejoin="round"/>
<path d="M49.5 6.75V15.75" stroke="#D51C1C" stroke-width="2.5" stroke-linecap="round" stroke-linejoin="round"/>
<path d="M22.5 6.75V15.75" stroke="#D51C1C" stroke-width="2.5" stroke-linecap="round" stroke-linejoin="round"/>
<path d="M11.25 24.75H60.75" stroke="#D51C1C" stroke-width="2.5" stroke-linecap="round" stroke-linejoin="round"/>
<path d="M42.75 36L29.25 49.5" stroke="#D51C1C" stroke-width="2.5" stroke-linecap="round" stroke-linejoin="round"/>
<path d="M42.75 49.5L29.25 36" stroke="#D51C1C" stroke-width="2.5" stroke-linecap="round" stroke-linejoin="round"/>
</g>
<defs>
<clipPath id="clip0_2523_389">
<rect width="72" height="72" fill="white"/>
</clipPath>
</defs>
</svg>
