<svg width="18" height="18" viewBox="0 0 18 18" fill="none" xmlns="http://www.w3.org/2000/svg">
<path d="M15.9375 9.00041H6.67125M3.4005 9.00041H2.0625M3.4005 9.00041C3.4005 8.56678 3.57276 8.15091 3.87938 7.84429C4.186 7.53766 4.60187 7.36541 5.0355 7.36541C5.46913 7.36541 5.885 7.53766 6.19162 7.84429C6.49824 8.15091 6.6705 8.56678 6.6705 9.00041C6.6705 9.43404 6.49824 9.8499 6.19162 10.1565C5.885 10.4631 5.46913 10.6354 5.0355 10.6354C4.60187 10.6354 4.186 10.4631 3.87938 10.1565C3.57276 9.8499 3.4005 9.43404 3.4005 9.00041ZM15.9375 13.9557H11.6265M11.6265 13.9557C11.6265 14.3894 11.4538 14.8057 11.1471 15.1124C10.8404 15.4191 10.4245 15.5914 9.99075 15.5914C9.55712 15.5914 9.14125 15.4184 8.83463 15.1118C8.52801 14.8052 8.35575 14.3893 8.35575 13.9557M11.6265 13.9557C11.6265 13.5219 11.4538 13.1063 11.1471 12.7996C10.8404 12.493 10.4245 12.3207 9.99075 12.3207C9.55712 12.3207 9.14125 12.4929 8.83463 12.7995C8.52801 13.1062 8.35575 13.522 8.35575 13.9557M8.35575 13.9557H2.0625M15.9375 4.04516H13.6088M10.338 4.04516H2.0625M10.338 4.04516C10.338 3.61153 10.5103 3.19566 10.8169 2.88904C11.1235 2.58241 11.5394 2.41016 11.973 2.41016C12.1877 2.41016 12.4003 2.45245 12.5987 2.53461C12.7971 2.61678 12.9773 2.73721 13.1291 2.88904C13.2809 3.04086 13.4014 3.2211 13.4835 3.41947C13.5657 3.61784 13.608 3.83045 13.608 4.04516C13.608 4.25987 13.5657 4.47248 13.4835 4.67084C13.4014 4.86921 13.2809 5.04945 13.1291 5.20128C12.9773 5.3531 12.7971 5.47353 12.5987 5.5557C12.4003 5.63787 12.1877 5.68016 11.973 5.68016C11.5394 5.68016 11.1235 5.5079 10.8169 5.20128C10.5103 4.89465 10.338 4.47879 10.338 4.04516Z" stroke="black" stroke-miterlimit="10" stroke-linecap="round"/>
</svg>
