<svg width="32" height="32" viewBox="0 0 32 32" fill="none" xmlns="http://www.w3.org/2000/svg">
<g id="fluent:tv-48-filled">
<path id="Vector" d="M2.66699 8.49992C2.66699 7.66007 3.00062 6.85461 3.59449 6.26075C4.18835 5.66688 4.99381 5.33325 5.83366 5.33325H26.167C27.0068 5.33325 27.8123 5.66688 28.4062 6.26075C29 6.85461 29.3337 7.66007 29.3337 8.49992V20.8333C29.3337 21.6731 29 22.4786 28.4062 23.0724C27.8123 23.6663 27.0068 23.9999 26.167 23.9999H5.83366C4.99381 23.9999 4.18835 23.6663 3.59449 23.0724C3.00062 22.4786 2.66699 21.6731 2.66699 20.8333V8.49992ZM7.50033 26.3333C7.27931 26.3333 7.06735 26.421 6.91107 26.5773C6.75479 26.7336 6.66699 26.9456 6.66699 27.1666C6.66699 27.3876 6.75479 27.5996 6.91107 27.7558C7.06735 27.9121 7.27931 27.9999 7.50033 27.9999H24.5003C24.7213 27.9999 24.9333 27.9121 25.0896 27.7558C25.2459 27.5996 25.3337 27.3876 25.3337 27.1666C25.3337 26.9456 25.2459 26.7336 25.0896 26.5773C24.9333 26.421 24.7213 26.3333 24.5003 26.3333H7.50033Z" fill="#0C0073"/>
</g>
</svg>
