<svg width="72" height="72" viewBox="0 0 72 72" fill="none" xmlns="http://www.w3.org/2000/svg">
<g clip-path="url(#clip0_2523_399)">
<path opacity="0.2" d="M9 27L11.9925 13.0275C12.1007 12.5239 12.3783 12.0727 12.7791 11.7492C13.1799 11.4257 13.6796 11.2495 14.1947 11.25H57.8053C58.3204 11.2495 58.8201 11.4257 59.2209 11.7492C59.6217 12.0727 59.8993 12.5239 60.0075 13.0275L63 27H9Z" fill="#2A40B0"/>
<path d="M63 47.25V56.25C63 56.8467 62.7629 57.419 62.341 57.841C61.919 58.2629 61.3467 58.5 60.75 58.5H54C53.4033 58.5 52.831 58.2629 52.409 57.841C51.9871 57.419 51.75 56.8467 51.75 56.25V47.25" stroke="#2A40B0" stroke-width="2.5" stroke-linecap="round" stroke-linejoin="round"/>
<path d="M20.25 47.25V56.25C20.25 56.8467 20.0129 57.419 19.591 57.841C19.169 58.2629 18.5967 58.5 18 58.5H11.25C10.6533 58.5 10.081 58.2629 9.65901 57.841C9.23705 57.419 9 56.8467 9 56.25V47.25" stroke="#2A40B0" stroke-width="2.5" stroke-linecap="round" stroke-linejoin="round"/>
<path d="M4.5 27H67.5" stroke="#2A40B0" stroke-width="2.5" stroke-linecap="round" stroke-linejoin="round"/>
<path d="M40.5 36V47.25" stroke="#2A40B0" stroke-width="2.5" stroke-linecap="round" stroke-linejoin="round"/>
<path d="M31.5 36V47.25" stroke="#2A40B0" stroke-width="2.5" stroke-linecap="round" stroke-linejoin="round"/>
<path d="M63 47.25H9V27L11.9925 13.0275C12.1007 12.5239 12.3783 12.0727 12.7791 11.7492C13.1799 11.4257 13.6796 11.2495 14.1947 11.25H57.8053C58.3204 11.2495 58.8201 11.4257 59.2209 11.7492C59.6217 12.0727 59.8993 12.5239 60.0075 13.0275L63 27V47.25Z" stroke="#2A40B0" stroke-width="2.5" stroke-linecap="round" stroke-linejoin="round"/>
<path d="M19.125 40.5C20.989 40.5 22.5 38.989 22.5 37.125C22.5 35.261 20.989 33.75 19.125 33.75C17.261 33.75 15.75 35.261 15.75 37.125C15.75 38.989 17.261 40.5 19.125 40.5Z" fill="#2A40B0"/>
<path d="M52.875 40.5C54.739 40.5 56.25 38.989 56.25 37.125C56.25 35.261 54.739 33.75 52.875 33.75C51.011 33.75 49.5 35.261 49.5 37.125C49.5 38.989 51.011 40.5 52.875 40.5Z" fill="#2A40B0"/>
</g>
<defs>
<clipPath id="clip0_2523_399">
<rect width="72" height="72" fill="white"/>
</clipPath>
</defs>
</svg>
