<svg width="32" height="32" viewBox="0 0 32 32" fill="none" xmlns="http://www.w3.org/2000/svg">
<g id="plug-fill">
<path id="Vector" d="M17.333 24.0001V26.6667H25.333V29.3334H17.333C15.8602 29.3334 14.6663 28.1395 14.6663 26.6667V24.0001H10.6663C7.72082 24.0001 5.33301 21.6122 5.33301 18.6667V13.3334H26.6663V18.6667C26.6663 21.6122 24.2785 24.0001 21.333 24.0001H17.333ZM21.333 8.00008H25.333C26.0694 8.00008 26.6663 8.59704 26.6663 9.33341V12.0001H5.33301V9.33341C5.33301 8.59704 5.92997 8.00008 6.66634 8.00008H10.6663V2.66675H13.333V8.00008H18.6663V2.66675H21.333V8.00008ZM15.9997 19.3334C16.7361 19.3334 17.333 18.7365 17.333 18.0001C17.333 17.2637 16.7361 16.6667 15.9997 16.6667C15.2633 16.6667 14.6663 17.2637 14.6663 18.0001C14.6663 18.7365 15.2633 19.3334 15.9997 19.3334Z" fill="#0C0073"/>
</g>
</svg>
