<svg width="24" height="24" viewBox="0 0 24 24" fill="none" xmlns="http://www.w3.org/2000/svg">
<path fill-rule="evenodd" clip-rule="evenodd" d="M12 20.5C16.6944 20.5 20.5 16.6944 20.5 12C20.5 7.30558 16.6944 3.5 12 3.5C7.30558 3.5 3.5 7.30558 3.5 12C3.5 16.6944 7.30558 20.5 12 20.5ZM21.5 12C21.5 17.2467 17.2467 21.5 12 21.5C6.75329 21.5 2.5 17.2467 2.5 12C2.5 6.75329 6.7533 2.5 12 2.5C17.2467 2.5 21.5 6.75329 21.5 12Z" fill="#F43434"/>
<path fill-rule="evenodd" clip-rule="evenodd" d="M15.0054 15.0053C14.8101 15.2006 14.4936 15.2006 14.2983 15.0053L8.995 9.70203C8.79974 9.50677 8.79974 9.19019 8.995 8.99493C9.19026 8.79966 9.50685 8.79966 9.70211 8.99493L15.0054 14.2982C15.2007 14.4935 15.2007 14.8101 15.0054 15.0053Z" fill="#F43434"/>
<path fill-rule="evenodd" clip-rule="evenodd" d="M8.99459 15.0053C8.79933 14.8101 8.79933 14.4935 8.99459 14.2982L14.2979 8.99493C14.4932 8.79966 14.8097 8.79966 15.005 8.99493C15.2003 9.19019 15.2003 9.50677 15.005 9.70203L9.7017 15.0053C9.50644 15.2006 9.18985 15.2006 8.99459 15.0053Z" fill="#F43434"/>
</svg>
