<svg width="24" height="24" viewBox="0 0 24 24" fill="none" xmlns="http://www.w3.org/2000/svg">
<g id="mage:chevron-up">
<path id="Vector (Stroke)" fill-rule="evenodd" clip-rule="evenodd" d="M15.5379 10.0605C16.0474 10.5775 16.333 11.2742 16.333 12C16.333 12.7258 16.0474 13.4225 15.5379 13.9395L15.5341 13.9433L8.94707 20.5303C8.65418 20.8232 8.17931 20.8232 7.88641 20.5303C7.59352 20.2374 7.59352 19.7626 7.88641 19.4697L14.4712 12.8848C14.7031 12.6487 14.833 12.331 14.833 12C14.833 11.669 14.7031 11.3513 14.4713 11.1152L7.88641 4.53033C7.59352 4.23744 7.59352 3.76256 7.88641 3.46967C8.17931 3.17678 8.65418 3.17678 8.94707 3.46967L15.5379 10.0605Z" fill="black"/>
</g>
</svg>
