<svg width="24" height="24" viewBox="0 0 24 24" fill="none" xmlns="http://www.w3.org/2000/svg">
<g id="suitcaseSmall">
<path id="Vector" d="M16.7417 20.8383H15.0428V19.9889H8.24722V20.8383H6.54833V19.9889H5.69889C4.76062 19.9889 4 19.2283 4 18.29V7.24722C4 6.30895 4.76062 5.54833 5.69889 5.54833H8.24722V3.84944C8.24722 3.38031 8.62754 3 9.09667 3H14.1933C14.6625 3 15.0428 3.38031 15.0428 3.84944V5.54833H17.5911C18.5294 5.54833 19.29 6.30895 19.29 7.24722V18.29C19.29 19.2283 18.5294 19.9889 17.5911 19.9889H16.7417V20.8383ZM9.94611 8.94611H8.24722V16.5911H9.94611V8.94611ZM15.0428 8.94611H13.3439V16.5911H15.0428V8.94611ZM13.3439 4.69889H9.94611V5.54833H13.3439V4.69889Z" fill="#0C0C0C"/>
</g>
</svg>
