<svg width="18" height="10" viewBox="0 0 18 10" fill="none" xmlns="http://www.w3.org/2000/svg">
<path fill-rule="evenodd" clip-rule="evenodd" d="M7.06055 1.46208C7.57751 0.952596 8.27418 0.666993 9 0.666993C9.72582 0.666993 10.4225 0.952596 10.9395 1.46208L10.9433 1.46591L17.5303 8.05293C17.8232 8.34582 17.8232 8.82069 17.5303 9.11359C17.2374 9.40648 16.7626 9.40648 16.4697 9.11359L9.88485 2.52876C9.64871 2.29692 9.33099 2.16699 9 2.16699C8.66903 2.16699 8.35131 2.29691 8.11518 2.52874L1.53033 9.11359C1.23744 9.40648 0.762562 9.40648 0.469669 9.11359C0.176776 8.82069 0.176776 8.34582 0.469669 8.05293L7.06055 1.46208Z" fill="black"/>
</svg>
