<svg width="12" height="17" viewBox="0 0 12 17" fill="none" xmlns="http://www.w3.org/2000/svg">
<g clip-path="url(#clip0_6473_1938)">
<path d="M4.5 2.25C4.5 2.1125 4.6125 2 4.75 2H7.25C7.3875 2 7.5 2.1125 7.5 2.25V4.5H4.5V2.25ZM10 4.5H9V2.25C9 1.28438 8.21562 0.5 7.25 0.5H4.75C3.78437 0.5 3 1.28438 3 2.25V4.5H2C0.896875 4.5 0 5.39687 0 6.5V13.5C0 14.6031 0.896875 15.5 2 15.5C2 16.0531 2.44688 16.5 3 16.5C3.55312 16.5 4 16.0531 4 15.5H8C8 16.0531 8.44687 16.5 9 16.5C9.55313 16.5 10 16.0531 10 15.5C11.1031 15.5 12 14.6031 12 13.5V6.5C12 5.39687 11.1031 4.5 10 4.5ZM3.5 7.5H8.5C8.775 7.5 9 7.725 9 8C9 8.275 8.775 8.5 8.5 8.5H3.5C3.225 8.5 3 8.275 3 8C3 7.725 3.225 7.5 3.5 7.5ZM3.5 11.5H8.5C8.775 11.5 9 11.725 9 12C9 12.275 8.775 12.5 8.5 12.5H3.5C3.225 12.5 3 12.275 3 12C3 11.725 3.225 11.5 3.5 11.5Z" fill="#4B5563"/>
</g>
<defs>
<clipPath id="clip0_6473_1938">
<path d="M0 0.5H12V16.5H0V0.5Z" fill="white"/>
</clipPath>
</defs>
</svg>
