<svg width="19" height="19" viewBox="0 0 19 19" fill="none" xmlns="http://www.w3.org/2000/svg">
<path d="M18.1301 14.1379C17.9734 15.3288 17.3885 16.422 16.4847 17.2133C15.5809 18.0045 14.42 18.4397 13.2188 18.4375C6.24024 18.4375 0.562508 12.7598 0.562508 5.78126C0.560355 4.58005 0.995534 3.41913 1.78677 2.51532C2.578 1.61152 3.67117 1.02664 4.86212 0.869927C5.16328 0.833154 5.46825 0.894767 5.73152 1.04557C5.99479 1.19637 6.20222 1.42827 6.32286 1.70665L8.17911 5.85069V5.86124C8.27147 6.07433 8.30962 6.30698 8.29014 6.53841C8.27066 6.76984 8.19417 6.99285 8.06749 7.18751C8.05167 7.21124 8.03497 7.23321 8.01739 7.25518L6.18751 9.42432C6.84581 10.762 8.24503 12.1489 9.6003 12.809L11.7396 10.9888C11.7606 10.9711 11.7826 10.9547 11.8055 10.9396C12 10.8098 12.2237 10.7306 12.4565 10.7092C12.6893 10.6877 12.9238 10.7246 13.1388 10.8165L13.1502 10.8218L17.2907 12.6772C17.5696 12.7974 17.8021 13.0046 17.9534 13.2679C18.1047 13.5312 18.1667 13.8364 18.1301 14.1379Z" fill="#0C0073"/>
</svg>
