<svg width="13" height="15" viewBox="0 0 13 15" fill="none" xmlns="http://www.w3.org/2000/svg">
<g clip-path="url(#clip0_6473_1890)">
<path d="M7.53126 1.8125V7.5H8.84376V2.10508C9.49727 2.48242 9.93751 3.19062 9.93751 4V7.5H11.25V4C11.25 2.0668 9.68321 0.5 7.75001 0.5H6.00001C4.06681 0.5 2.50001 2.0668 2.50001 4V7.5H3.81251V4C3.81251 3.19062 4.25274 2.48242 4.90626 2.10508V7.5H6.21876V1.8125H7.53126ZM2.06251 8.375C1.73165 8.375 1.42813 8.56094 1.28048 8.85898L0.842977 9.73398C0.706258 10.0047 0.722665 10.3273 0.881258 10.5844C1.03985 10.8414 1.32149 11 1.62501 11V13.625C1.62501 14.109 2.01602 14.5 2.50001 14.5C2.98399 14.5 3.37501 14.109 3.37501 13.625V11H10.375V13.625C10.375 14.109 10.766 14.5 11.25 14.5C11.734 14.5 12.125 14.109 12.125 13.625V11C12.4285 11 12.7102 10.8441 12.8688 10.5844C13.0274 10.3246 13.0438 10.0047 12.907 9.73398L12.4695 8.85898C12.3219 8.56094 12.0184 8.375 11.6875 8.375H2.06251Z" fill="#C2410C"/>
</g>
<defs>
<clipPath id="clip0_6473_1890">
<path d="M0.75 0.5H13V14.5H0.75V0.5Z" fill="white"/>
</clipPath>
</defs>
</svg>
