<svg width="18" height="22" viewBox="0 0 18 22" fill="none" xmlns="http://www.w3.org/2000/svg">
<g id="Group">
<path id="Vector (Stroke)" fill-rule="evenodd" clip-rule="evenodd" d="M9 1.5C7.067 1.5 5.5 3.067 5.5 5C5.5 6.933 7.067 8.5 9 8.5C10.933 8.5 12.5 6.933 12.5 5C12.5 3.067 10.933 1.5 9 1.5ZM4.5 5C4.5 2.51472 6.51472 0.5 9 0.5C11.4853 0.5 13.5 2.51472 13.5 5C13.5 7.48528 11.4853 9.5 9 9.5C6.51472 9.5 4.5 7.48528 4.5 5Z" fill="#181818"/>
<path id="Vector (Stroke)_2" fill-rule="evenodd" clip-rule="evenodd" d="M3.58843 13.7539C2.21282 14.5277 1.50005 15.5184 1.50005 16.5C1.50005 17.7859 1.52692 18.6517 2.31578 19.2942C2.72947 19.6311 3.39241 19.9373 4.47425 20.1563C5.55388 20.3748 7.01723 20.5 9.00005 20.5C10.9829 20.5 12.4462 20.3748 13.5258 20.1563C14.6077 19.9373 15.2706 19.6311 15.6843 19.2942C16.4732 18.6517 16.5 17.7859 16.5 16.5C16.5 15.5184 15.7873 14.5277 14.4117 13.7539C13.0517 12.9889 11.1394 12.5 9.00005 12.5C6.86067 12.5 4.94835 12.9889 3.58843 13.7539ZM3.09816 12.8823C4.63374 12.0186 6.72142 11.5 9.00005 11.5C11.2787 11.5 13.3664 12.0186 14.9019 12.8823C16.4218 13.7373 17.5 14.9966 17.5 16.5C17.5 16.5254 17.5001 16.5509 17.5001 16.5764C17.5006 17.7575 17.5013 19.1041 16.3158 20.0696C15.7295 20.5471 14.8924 20.8999 13.7243 21.1364C12.5539 21.3733 11.0172 21.5 9.00005 21.5C6.98286 21.5 5.44622 21.3733 4.27585 21.1364C3.10769 20.8999 2.27062 20.5471 1.68431 20.0696C0.498828 19.1041 0.499466 17.7575 0.500024 16.5764C0.500036 16.5509 0.500049 16.5254 0.500049 16.5C0.500049 14.9966 1.57828 13.7373 3.09816 12.8823Z" fill="#181818"/>
</g>
</svg>
